<svg width="48" height="48" viewBox="0 0 48 48" fill="none" xmlns="http://www.w3.org/2000/svg">
<path fill-rule="evenodd" clip-rule="evenodd" d="M5.4999 3C5.1021 3 4.7206 3.15803 4.43931 3.43931C4.15803 3.7206 4 4.1021 4 4.4999V13.4993C4 13.8971 4.15803 14.2786 4.43931 14.5599C4.7206 14.8412 5.1021 14.9992 5.4999 14.9992H14.4993C14.8971 14.9992 15.2786 14.8412 15.5599 14.5599C15.8412 14.2786 15.9992 13.8971 15.9992 13.4993V11.2495H30.9983V13.3193L12.8194 31.4982H5.4999C5.1021 31.4982 4.7206 31.6562 4.43931 31.9375C4.15803 32.2188 4 32.6003 4 32.9981V41.9975C4 42.3953 4.15803 42.7768 4.43931 43.0581C4.7206 43.3394 5.1021 43.4974 5.4999 43.4974H14.4993C14.8971 43.4974 15.2786 43.3394 15.5599 43.0581C15.8412 42.7768 15.9992 42.3953 15.9992 41.9975V39.7477H33.9981V43.4974C33.9975 43.7945 34.0852 44.085 34.25 44.3321C34.4148 44.5793 34.6492 44.7719 34.9236 44.8857C35.198 44.9994 35.5 45.0291 35.7913 44.971C36.0826 44.9129 36.3501 44.7696 36.5599 44.5593L42.5595 38.5597C42.6992 38.4204 42.81 38.2549 42.8857 38.0727C42.9613 37.8904 43.0002 37.6951 43.0002 37.4978C43.0002 37.3005 42.9613 37.1052 42.8857 36.9229C42.81 36.7407 42.6992 36.5752 42.5595 36.4359L36.5599 30.4362C36.3501 30.2259 36.0826 30.0827 35.7913 30.0246C35.5 29.9665 35.198 29.9962 34.9236 30.1099C34.6492 30.2237 34.4148 30.4163 34.25 30.6635C34.0852 30.9106 33.9975 31.2011 33.9981 31.4982V35.2479H15.9992V34.678L35.678 14.9992H41.4976C41.8954 14.9992 42.2769 14.8412 42.5582 14.5599C42.8395 14.2786 42.9975 13.8971 42.9975 13.4993V4.4999C42.9975 4.1021 42.8395 3.7206 42.5582 3.43931C42.2769 3.15803 41.8954 3 41.4976 3H32.4982C32.1004 3 31.7189 3.15803 31.4376 3.43931C31.1563 3.7206 30.9983 4.1021 30.9983 4.4999V6.74976H15.9992V4.4999C15.9992 4.1021 15.8412 3.7206 15.5599 3.43931C15.2786 3.15803 14.8971 3 14.4993 3H5.4999Z" fill="#AB87E5"/>
</svg>
