<svg width="48" height="48" viewBox="0 0 48 48" fill="none" xmlns="http://www.w3.org/2000/svg">
<path d="M8.2 15.7C8.2 16.8046 7.30457 17.7 6.2 17.7H6C4.89543 17.7 4 16.8046 4 15.7V5.1C4 4.54305 4.22125 4.0089 4.61508 3.61508C5.0089 3.22125 5.54305 3 6.1 3H16.7C17.8046 3 18.7 3.89543 18.7 5V5.2C18.7 6.30457 17.8046 7.2 16.7 7.2H8.2V15.7ZM44 5.1C44 4.54305 43.7788 4.0089 43.3849 3.61508C42.9911 3.22125 42.457 3 41.9 3H31.3C30.1954 3 29.3 3.89543 29.3 5V5.2C29.3 6.30457 30.1954 7.2 31.3 7.2H39.8V15.7C39.8 16.8046 40.6954 17.7 41.8 17.7H42C43.1046 17.7 44 16.8046 44 15.7V5.1ZM44 42.9V32.3C44 31.1954 43.1046 30.3 42 30.3H41.8C40.6954 30.3 39.8 31.1954 39.8 32.3V40.8H31.3C30.1954 40.8 29.3 41.6954 29.3 42.8V43C29.3 44.1046 30.1954 45 31.3 45H41.9C42.457 45 42.9911 44.7788 43.3849 44.3849C43.7788 43.9911 44 43.457 44 42.9ZM18.7 42.8C18.7 41.6954 17.8046 40.8 16.7 40.8H8.2V32.3C8.2 31.1954 7.30457 30.3 6.2 30.3H6C4.89543 30.3 4 31.1954 4 32.3V42.9C4 43.457 4.22125 43.9911 4.61508 44.3849C5.0089 44.7788 5.54305 45 6.1 45H16.7C17.8046 45 18.7 44.1046 18.7 43V42.8Z" fill="#AB87E5"/>
<path d="M30.75 21.75H26.25V17.25C26.25 16.6533 26.0129 16.081 25.591 15.659C25.169 15.2371 24.5967 15 24 15C23.4033 15 22.831 15.2371 22.409 15.659C21.9871 16.081 21.75 16.6533 21.75 17.25L21.8299 21.75H17.25C16.6533 21.75 16.081 21.9871 15.659 22.409C15.2371 22.831 15 23.4033 15 24C15 24.5967 15.2371 25.169 15.659 25.591C16.081 26.0129 16.6533 26.25 17.25 26.25L21.8299 26.1701L21.75 30.75C21.75 31.3467 21.9871 31.919 22.409 32.341C22.831 32.7629 23.4033 33 24 33C24.5967 33 25.169 32.7629 25.591 32.341C26.0129 31.919 26.25 31.3467 26.25 30.75V26.1701L30.75 26.25C31.3467 26.25 31.919 26.0129 32.341 25.591C32.7629 25.169 33 24.5967 33 24C33 23.4033 32.7629 22.831 32.341 22.409C31.919 21.9871 31.3467 21.75 30.75 21.75Z" fill="#AB87E5"/>
</svg>
