<svg width="48" height="48" viewBox="0 0 48 48" fill="none" xmlns="http://www.w3.org/2000/svg">
<path d="M23.9993 3.00143C12.41 3.00143 3 12.4114 3 24.0007C3 35.59 12.41 45 23.9993 45C35.5886 45 44.9986 35.59 44.9986 24.0007C44.9986 20.7796 44.2697 17.7272 42.9711 14.998L40.8862 17.083C40.4925 17.4789 39.9557 17.7021 39.3974 17.7022H38.8177C39.6428 19.6377 40.1001 21.766 40.1001 24.0007C40.1001 32.8839 32.8825 40.1015 23.9993 40.1015C15.1161 40.1015 7.89847 32.8839 7.89847 24.0007C7.89847 15.1175 15.1161 7.89981 23.9993 7.89981C26.2344 7.89981 28.3633 8.35678 30.2991 9.18223V8.60254C30.2992 8.04422 30.5225 7.50745 30.9184 7.11376L33.0019 5.02889C30.2727 3.73028 27.2204 3.00143 23.9993 3.00143ZM37.2797 3.00143C37.1005 3.00678 36.9302 3.08056 36.8039 3.20772L31.9055 8.10617C31.84 8.17121 31.7881 8.2486 31.7527 8.33377C31.7173 8.41894 31.699 8.51022 31.699 8.60246V13.2139L22.4558 22.4571C21.6085 23.3044 21.6085 24.7009 22.4558 25.5482C23.3031 26.3955 24.6955 26.3914 25.5428 25.5429L34.7847 16.301H39.3974C39.4896 16.301 39.581 16.2828 39.6661 16.2474C39.7513 16.212 39.8286 16.1601 39.8937 16.0947L44.7921 11.1962C44.8896 11.0981 44.9558 10.9735 44.9825 10.8378C45.0092 10.7022 44.9951 10.5616 44.942 10.434C44.8889 10.3063 44.7992 10.1972 44.6842 10.1205C44.5693 10.0437 44.4341 10.0027 44.2959 10.0027H41.0831L41.6409 9.44495C42.4882 8.59762 42.4922 7.20523 41.6451 6.3579C41.2214 5.93424 40.6598 5.72218 40.0989 5.72218C39.5379 5.72218 38.9777 5.93434 38.554 6.3579L37.9975 6.91434V3.69747C37.9972 3.60426 37.9782 3.51205 37.9418 3.42627C37.9053 3.34049 37.8521 3.26289 37.7853 3.19795C37.7184 3.133 37.6393 3.08205 37.5525 3.0481C37.4657 3.01415 37.3729 2.99908 37.2797 3.00143ZM23.9993 12.7983C17.8222 12.7983 12.7969 17.8236 12.7969 24.0007C12.7969 30.1778 17.8222 35.1976 23.9993 35.1976C30.1764 35.1976 35.1962 30.1778 35.1962 24.0007C35.1962 22.2186 34.7688 20.538 34.0259 19.0407L30.1911 22.8755C30.2575 23.2412 30.2977 23.6162 30.2977 24.0007C30.2977 27.4717 27.4703 30.2991 23.9993 30.2991C20.5283 30.2991 17.7009 27.4717 17.7009 24.0007C17.7009 20.5297 20.5283 17.7022 23.9993 17.7022C24.3838 17.7022 24.7587 17.7425 25.1244 17.8089L28.9606 13.9727C27.4632 13.2282 25.7825 12.7983 23.9993 12.7983Z" fill="#AB87E5"/>
</svg>
