<svg width="48" height="48" viewBox="0 0 48 48" fill="none" xmlns="http://www.w3.org/2000/svg">
<path d="M17.3964 35.8633H30.5857C31.2052 35.8633 31.5876 35.4809 31.5876 34.8614V31.9467C31.5876 27.5381 38 24.6964 38 16.8267C38 8.53797 32.389 3 23.9907 3C15.5924 3 10 8.53797 10 16.8274C10 24.6964 16.3945 27.5381 16.3945 31.9467V34.8614C16.3945 35.4809 16.7948 35.8633 17.3964 35.8633ZM18.0703 40.7826H29.9118C30.8407 40.7826 31.5876 40.0178 31.5876 39.0703C31.5876 38.1228 30.8407 37.358 29.9111 37.358H18.0703C17.1415 37.358 16.3945 38.1236 16.3945 39.0703C16.3945 40.0185 17.1407 40.7826 18.0703 40.7826ZM23.9907 45.1733C26.5051 45.1733 28.2718 44.0253 28.4537 42.2586H19.5276C19.6917 44.0253 21.4584 45.1733 23.9907 45.1733Z" fill="#AB87E5"/>
</svg>
