<svg width="31" height="48" viewBox="0 0 31 48" fill="none" xmlns="http://www.w3.org/2000/svg">
<path d="M8.87115 6.27172C9.26715 6.66772 9.91064 6.71722 10.3561 6.42022L14.1181 10.2812V12.1127C14.3656 12.0632 14.6131 12.0137 14.9101 12.0137C17.1871 12.0137 19.0186 13.8452 19.0186 16.1222C19.0186 18.3992 17.1871 20.2306 14.9101 20.2306C14.6131 20.2306 14.3656 20.1811 14.1181 20.1316V22.8541C14.1181 23.6956 14.7616 24.3391 15.6031 24.3391H23.9191C24.7606 24.3391 25.4041 23.6956 25.4041 22.8541V8.40021C25.4041 7.60821 24.7606 6.91522 23.9191 6.91522H17.9296L14.0686 2.90574C14.3656 2.46024 14.3656 1.81675 13.9696 1.42075L13.9201 1.37125C13.4746 0.876251 12.7321 0.876251 12.2371 1.37125L8.92065 4.58873C8.42565 5.03423 8.42565 5.82622 8.87115 6.27172Z" fill="#AB87E5" stroke="#AB87E5" stroke-width="0.747727"/>
<path d="M26.9379 41.7136H25.8489V40.1296C25.8489 39.4366 25.2549 38.8426 24.5619 38.8426H14.9094C14.2164 38.8426 13.6224 39.4366 13.6224 40.1296V41.7136H7.28647V27.6062C7.28647 23.9432 9.66245 20.8247 12.9294 19.7357C11.6424 19.0428 10.8009 17.7063 10.8009 16.1223C10.8009 15.1323 11.1474 14.2413 11.7414 13.4988C5.55398 15.1818 1 20.8742 1 27.6062V44.8321C1 46.5646 2.38599 48.0001 4.16798 48.0001H26.9379C28.6704 48.0001 30.1058 46.5646 30.1058 44.8321C30.1058 43.0996 28.6704 41.7136 26.9379 41.7136Z" fill="#AB87E5" stroke="#AB87E5" stroke-width="0.747727"/>
<path d="M17.6821 29.6356H21.7906C22.4341 29.6356 22.9786 29.0911 22.9786 28.4476V25.9231H16.4941V28.4476C16.4941 29.0911 17.0386 29.6356 17.6821 29.6356Z" fill="#AB87E5" stroke="#AB87E5" stroke-width="0.747727"/>
<path d="M17.4342 16.1221C17.4342 14.7361 16.2957 13.5977 14.9097 13.5977C13.5237 13.5977 12.3853 14.7361 12.3853 16.1221C12.3853 17.5081 13.5237 18.6466 14.9097 18.6466C16.2957 18.6466 17.4342 17.5081 17.4342 16.1221Z" fill="#AB87E5"/>
</svg>
