<svg width="48" height="48" viewBox="0 0 48 48" fill="none" xmlns="http://www.w3.org/2000/svg">
<path d="M20.8701 3.50879C25.4294 3.36598 29.872 4.96613 33.293 7.9834C36.7139 11.0007 38.8563 15.2087 39.2842 19.75C39.6981 24.1443 38.4752 28.5304 35.8613 32.0742L43.6602 39.873H43.6592C43.9167 40.116 44.1244 40.407 44.2686 40.7305C44.4149 41.059 44.4936 41.4139 44.5 41.7734C44.5063 42.1331 44.4394 42.4906 44.3047 42.8242C44.17 43.1578 43.9702 43.4614 43.7158 43.7158C43.4614 43.9702 43.1578 44.17 42.8242 44.3047C42.4906 44.4394 42.1331 44.5063 41.7734 44.5C41.4139 44.4936 41.059 44.4149 40.7305 44.2686C40.407 44.1244 40.116 43.9167 39.873 43.6592L32.0742 35.8613C28.5304 38.4752 24.1443 39.6981 19.75 39.2842C15.2087 38.8563 11.0007 36.7139 7.9834 33.293C4.96613 29.872 3.36598 25.4294 3.50879 20.8701C3.65162 16.3109 5.52652 11.9774 8.75195 8.75195C11.9774 5.52652 16.3109 3.65162 20.8701 3.50879ZM21.4297 8.85645C18.095 8.85649 14.897 10.1811 12.5391 12.5391C10.1811 14.897 8.85649 18.095 8.85645 21.4297C8.85645 23.0808 9.18166 24.7158 9.81348 26.2412C10.4453 27.7666 11.3716 29.1528 12.5391 30.3203C13.7066 31.4879 15.0927 32.415 16.6182 33.0469C18.1436 33.6787 19.7786 34.0039 21.4297 34.0039C23.0807 34.0039 24.7158 33.6786 26.2412 33.0469C27.7667 32.415 29.1527 31.4879 30.3203 30.3203C31.4879 29.1527 32.415 27.7667 33.0469 26.2412C33.6786 24.7158 34.0039 23.0807 34.0039 21.4297C34.0039 18.095 32.6783 14.897 30.3203 12.5391C27.9623 10.1811 24.7644 8.85645 21.4297 8.85645Z" fill="#AB87E5" stroke="#AB87E5"/>
</svg>
