<svg width="48" height="48" viewBox="0 0 48 48" fill="none" xmlns="http://www.w3.org/2000/svg">
<path d="M24 0C24.5304 0 25.0391 0.210714 25.4142 0.585786C25.7893 0.960859 26 1.46957 26 2V6C26 6.53043 25.7893 7.03914 25.4142 7.41421C25.0391 7.78929 24.5304 8 24 8C23.4696 8 22.9609 7.78929 22.5858 7.41421C22.2107 7.03914 22 6.53043 22 6V2C22 1.46957 22.2107 0.960859 22.5858 0.585786C22.9609 0.210714 23.4696 0 24 0ZM0 24C0 23.4696 0.210714 22.9609 0.585786 22.5858C0.960859 22.2107 1.46957 22 2 22H6C6.53043 22 7.03914 22.2107 7.41421 22.5858C7.78929 22.9609 8 23.4696 8 24C8 24.5304 7.78929 25.0391 7.41421 25.4142C7.03914 25.7893 6.53043 26 6 26H2C1.46957 26 0.960859 25.7893 0.585786 25.4142C0.210714 25.0391 0 24.5304 0 24ZM42 22C41.4696 22 40.9609 22.2107 40.5858 22.5858C40.2107 22.9609 40 23.4696 40 24C40 24.5304 40.2107 25.0391 40.5858 25.4142C40.9609 25.7893 41.4696 26 42 26H46C46.5304 26 47.0391 25.7893 47.4142 25.4142C47.7893 25.0391 48 24.5304 48 24C48 23.4696 47.7893 22.9609 47.4142 22.5858C47.0391 22.2107 46.5304 22 46 22H42ZM26 42C26 41.4696 25.7893 40.9609 25.4142 40.5858C25.0391 40.2107 24.5304 40 24 40C23.4696 40 22.9609 40.2107 22.5858 40.5858C22.2107 40.9609 22 41.4696 22 42V46C22 46.5304 22.2107 47.0391 22.5858 47.4142C22.9609 47.7893 23.4696 48 24 48C24.5304 48 25.0391 47.7893 25.4142 47.4142C25.7893 47.0391 26 46.5304 26 46V42ZM12.686 35.314C13.0609 35.6891 13.2716 36.1977 13.2716 36.728C13.2716 37.2583 13.0609 37.7669 12.686 38.142L9.86 40.97C9.67551 41.161 9.45482 41.3134 9.21081 41.4182C8.9668 41.523 8.70436 41.5782 8.4388 41.5805C8.17324 41.5828 7.90988 41.5322 7.66409 41.4316C7.4183 41.3311 7.195 41.1826 7.00721 40.9948C6.81942 40.807 6.67092 40.5837 6.57036 40.3379C6.4698 40.0921 6.41919 39.8288 6.4215 39.5632C6.42381 39.2976 6.47898 39.0352 6.5838 38.7912C6.68861 38.5472 6.84098 38.3265 7.032 38.142L9.86 35.314C10.2351 34.9391 10.7437 34.7284 11.274 34.7284C11.8043 34.7284 12.3109 34.9391 12.686 35.314ZM40.97 7.03C41.3449 7.40506 41.5556 7.91367 41.5556 8.444C41.5556 8.97433 41.3449 9.48294 40.97 9.858L38.142 12.686C37.9575 12.877 37.7368 13.0294 37.4928 13.1342C37.2488 13.239 36.9864 13.2942 36.7208 13.2965C36.4552 13.2988 36.1919 13.2482 35.9461 13.1476C35.7003 13.0471 35.477 12.8986 35.2892 12.7108C35.1014 12.523 34.9529 12.2997 34.8524 12.0539C34.7518 11.8081 34.7012 11.5448 34.7035 11.2792C34.7058 11.0136 34.761 10.7512 34.8658 10.5072C34.9706 10.2632 35.123 10.0425 35.314 9.858L38.142 7.03C38.5171 6.65506 39.0257 6.44443 39.556 6.44443C40.0863 6.44443 40.5949 6.65506 40.97 7.03ZM7.03 7.03C7.40506 6.65506 7.91367 6.44443 8.444 6.44443C8.97433 6.44443 9.48294 6.65506 9.858 7.03L12.686 9.858C12.8815 10.0413 13.0381 10.262 13.1466 10.5071C13.2552 10.7521 13.3133 11.0165 13.3177 11.2844C13.322 11.5524 13.2725 11.8185 13.172 12.0669C13.0715 12.3153 12.9221 12.541 12.7326 12.7306C12.5432 12.9202 12.3176 13.0697 12.0693 13.1704C11.8209 13.2711 11.5548 13.3208 11.2869 13.3167C11.0189 13.3125 10.7545 13.2545 10.5094 13.1462C10.2643 13.0379 10.0435 12.8814 9.86 12.686L7.03 9.86C6.65506 9.48494 6.44443 8.97633 6.44443 8.446C6.44443 7.91567 6.65506 7.40506 7.03 7.03ZM35.314 35.314C35.6891 34.9391 36.1977 34.7284 36.728 34.7284C37.2583 34.7284 37.7669 34.9391 38.142 35.314L40.97 38.142C41.161 38.3265 41.3134 38.5472 41.4182 38.7912C41.523 39.0352 41.5782 39.2976 41.5805 39.5632C41.5828 39.8288 41.5322 40.0921 41.4316 40.3379C41.3311 40.5837 41.1826 40.807 40.9948 40.9948C40.807 41.1826 40.5837 41.3311 40.3379 41.4316C40.0921 41.5322 39.8288 41.5828 39.5632 41.5805C39.2976 41.5782 39.0352 41.523 38.7912 41.4182C38.5472 41.3134 38.3265 41.161 38.142 40.97L35.314 38.142C34.9391 37.7669 34.7284 37.2583 34.7284 36.728C34.7284 36.1977 34.9391 35.6891 35.314 35.314Z" fill="#FDB879" stroke="#FDB879" stroke-width="0.6"/>
<circle cx="24" cy="24" r="13" fill="#FDB879"/>
</svg>
