<svg width="36" height="46" viewBox="0 0 36 46" fill="none" xmlns="http://www.w3.org/2000/svg">
<path d="M0.393705 24.1201C0.169358 24.1773 0 24.4016 0 24.6831C0 24.7826 0.0332814 24.8825 0.0898811 24.9726C0.236307 25.2059 0.525993 25.2869 0.789218 25.3679L4.05362 26.3723C7.8829 27.5557 10.8104 30.4831 11.9939 34.3127L13.1201 37.9726C13.1773 38.1969 13.4016 38.3663 13.6831 38.3663C13.7826 38.3663 13.8825 38.333 13.9726 38.2764C14.2059 38.13 14.2869 37.8403 14.3679 37.5771L15.3723 34.3127C16.5557 30.4834 19.4831 27.5559 23.3127 26.3723L26.9154 25.2462C27.1397 25.189 27.3091 24.9647 27.3091 24.6831C27.3091 24.5802 27.2734 24.4768 27.2131 24.3842C27.067 24.1596 26.7869 24.0799 26.5311 24L23.3127 22.9939C19.4834 21.8106 16.4985 18.8831 15.3723 15.0536L14.2462 11.3937C14.189 11.1694 13.9647 11 13.6831 11C13.5837 11 13.4838 11.0333 13.3936 11.0899C13.1604 11.2363 13.0794 11.526 12.9984 11.7892L11.9939 15.0536C10.8106 18.8829 7.88313 21.8104 4.05362 22.9939L0.393705 24.1201Z" fill="#FDB879"/>
<path d="M35.1896 7.15047L33.2189 6.5302C31.2482 5.90993 29.6711 4.39011 29.0531 2.36443L28.4328 0.393706C28.3757 0.169359 28.1513 0 27.8698 0C27.7448 0 27.642 0.0333576 27.5564 0.0900753C27.3358 0.236309 27.2668 0.520535 27.1873 0.772999L26.6864 2.36443C26.0662 4.33515 24.5464 5.91218 22.5207 6.5302L20.55 7.15047C20.3256 7.20765 20.1562 7.432 20.1562 7.65635C20.1562 7.76083 20.193 7.86579 20.2549 7.95945C20.4008 8.18024 20.6768 8.25933 20.9292 8.33879L22.5207 8.83968C24.4914 9.45995 26.0684 10.9798 26.6864 13.0055L27.3067 14.9762C27.3639 15.2005 27.5883 15.3699 27.8698 15.3699C27.9868 15.3699 28.0844 15.3406 28.1666 15.2903C28.4035 15.1454 28.4737 14.8427 28.555 14.5772L29.0531 12.9504C29.6734 10.9797 31.1932 9.40269 33.2189 8.78467L35.1896 8.1644C35.414 8.10722 35.5833 7.88287 35.5833 7.60134C35.5855 7.43198 35.4162 7.20765 35.1896 7.15047Z" fill="#FDB879"/>
<path d="M22.6345 38.5124C24.6052 39.1327 26.1823 40.6525 26.8003 42.6782L27.4206 44.6489C27.4777 44.8732 27.7021 45.0426 27.9836 45.0426C28.2652 45.0426 28.4345 44.8732 28.5467 44.6489L29.167 42.6782C29.7872 40.7074 31.3071 39.1304 33.3327 38.5124L35.3035 37.8921C35.5278 37.8349 35.6972 37.6106 35.6972 37.3291C35.6972 37.1047 35.5278 36.8782 35.3035 36.766L33.3327 36.1457C32.3188 35.8642 31.4192 35.3011 30.7417 34.5687C30.0093 33.8363 29.5035 32.9917 29.1647 31.9777L28.5444 30.007C28.4873 29.7826 28.2629 29.6133 27.9814 29.6133C27.6998 29.6133 27.5305 29.7826 27.4183 30.007L26.7431 32.0943C26.1228 34.065 24.603 35.642 22.5773 36.26L20.6066 36.8231C20.3822 36.8803 20.2129 37.1046 20.2129 37.3862C20.2129 37.6105 20.3822 37.837 20.6066 37.9492L22.6345 38.5124Z" fill="#FDB879"/>
</svg>
