<svg width="48" height="48" viewBox="0 0 48 48" fill="none" xmlns="http://www.w3.org/2000/svg">
<path d="M34.3986 12.2851C34.9989 17.7703 30.5974 20.2844 30.5974 20.2844C30.7973 1.77173 18.1929 2.00013 18.1929 2.00013C20.794 4.28579 23.795 12.5135 16.1921 17.77C16.0808 17.8472 15.9708 17.9247 15.8623 18.0026C6.08545 25.0382 6.87263 43.1157 17.4753 46C15.0608 42.0696 15.3032 36.166 19.5195 33.1319C19.5807 33.0879 19.6426 33.044 19.7054 33.0007C23.9953 30.0347 22.302 25.3916 20.8345 24.102C20.8345 24.102 27.9468 23.9731 27.8339 34.4192C27.8339 34.4192 30.3176 33.0007 29.9789 29.9054C29.9789 29.9054 32.6374 35.4663 32.573 40.2305C32.5455 42.2541 31.9941 44.1317 31.0662 45.6847C35.7424 42.7914 38.9099 38.5144 38.998 31.983C39.1121 23.5408 34.3986 12.2851 34.3986 12.2851Z" fill="#FDB879"/>
</svg>
