<svg width="48" height="48" viewBox="0 0 48 48" fill="none" xmlns="http://www.w3.org/2000/svg">
<path d="M24 4C29.3043 4 34.3919 6.10669 38.1426 9.85742C41.8933 13.6081 44 18.6957 44 24C44 29.3043 41.8933 34.3919 38.1426 38.1426C34.3919 41.8933 29.3043 44 24 44C18.6957 44 13.6081 41.8933 9.85742 38.1426C6.10669 34.3919 4 29.3043 4 24C4 18.6957 6.10669 13.6081 9.85742 9.85742C13.6081 6.10669 18.6957 4 24 4ZM14.2656 26.7803C14.0763 26.7804 13.8946 26.8554 13.7607 26.9893C13.6269 27.1232 13.5518 27.3048 13.5518 27.4941C13.5518 29.0713 14.3234 31.3144 15.9834 33.1602C17.6691 35.0344 20.2838 36.5117 23.9551 36.5117C27.6261 36.5116 30.2401 35.0343 31.9258 33.1602C33.5858 31.3144 34.3545 29.0741 34.3545 27.4941C34.3544 27.3048 34.2794 27.1232 34.1455 26.9893C34.0116 26.8554 33.83 26.7804 33.6406 26.7803H14.2656Z" fill="#FDB879"/>
</svg>
