<svg width="48" height="48" viewBox="0 0 48 48" fill="none" xmlns="http://www.w3.org/2000/svg">
<path fill-rule="evenodd" clip-rule="evenodd" d="M32.1358 6.88236C28.4548 5.10308 24.298 4.56637 20.2872 5.35255C16.2765 6.13873 12.6276 8.20552 9.88657 11.2437C7.14551 14.2818 5.45965 18.1279 5.08128 22.2065C4.70291 26.2851 5.65236 30.3768 7.78757 33.8694L5.08613 41.0818C5.00232 41.307 4.97942 41.5505 5.01975 41.7874C5.06008 42.0244 5.16221 42.2465 5.31579 42.4312C5.46936 42.6158 5.66891 42.7565 5.89422 42.8389C6.11953 42.9214 6.36257 42.9426 6.59872 42.9005L16.0306 41.1963C20.5704 43.3369 25.7726 43.5823 30.4929 41.8784C35.2131 40.1745 39.0648 36.6609 41.2005 32.1106C43.3361 27.5603 43.5809 22.346 41.881 17.6148C40.181 12.8836 36.6756 9.023 32.1358 6.88236Z" fill="#FDB879"/>
</svg>
