<svg width="40" height="47" viewBox="0 0 40 47" fill="none" xmlns="http://www.w3.org/2000/svg">
<path d="M33.3402 35.6546C32.9374 35.4694 32.6005 35.1663 32.3738 34.7853C32.1472 34.4044 32.0416 33.9636 32.0711 33.5213L32.9026 21.148C33.1214 17.7893 32.5197 17.297 26.0321 1.53229C25.8209 1.00517 25.4325 0.568233 24.9337 0.296788C24.4349 0.0253426 23.8571 -0.0636092 23.2998 0.0452628C22.7424 0.154135 22.2406 0.454011 21.8806 0.893208C21.5207 1.3324 21.3252 1.88341 21.3279 2.45126C21.3279 2.56066 22.8814 17.4174 22.9908 17.5268C23.5836 17.4956 24.1765 17.5854 24.7335 17.7906C25.2905 17.9958 25.7999 18.3123 26.2308 18.7206C26.6616 19.1289 27.0049 19.6206 27.2397 20.1658C27.4745 20.711 27.5959 21.2983 27.5966 21.8919V28.456C27.5966 28.7461 27.4813 29.0244 27.2762 29.2296C27.071 29.4347 26.7927 29.55 26.5026 29.55C26.2124 29.55 25.9342 29.4347 25.729 29.2296C25.5238 29.0244 25.4086 28.7461 25.4086 28.456V21.8919C25.4067 21.4605 25.2774 21.0392 25.0369 20.6811C24.7963 20.323 24.4553 20.0439 24.0566 19.8791C23.6579 19.7142 23.2194 19.6709 22.7962 19.7546C22.373 19.8383 21.9839 20.0452 21.678 20.3493C20.7809 21.2136 21.0325 20.7651 21.0325 36.3219C21.0325 37.2844 21.2442 38.2351 21.6526 39.1067C22.061 39.9783 22.656 40.7494 23.3956 41.3654L39.6308 46.5466V37.7944L33.3402 35.6546Z" fill="#FDD337"/>
<path d="M6.2907 35.6546C6.69342 35.4694 7.03041 35.1663 7.25702 34.7853C7.48364 34.4044 7.58921 33.9636 7.55975 33.5213L6.72831 21.148C6.5095 17.7893 7.11121 17.297 13.5987 1.53229C13.8099 1.00517 14.1984 0.568233 14.6972 0.296788C15.1959 0.0253426 15.7738 -0.0636092 16.3311 0.0452628C16.8884 0.154135 17.3903 0.454011 17.7503 0.893208C18.1102 1.3324 18.3057 1.88341 18.303 2.45126C18.303 2.56066 16.7495 17.4174 16.6401 17.5268C16.0473 17.4956 15.4544 17.5854 14.8974 17.7906C14.3404 17.9958 13.8309 18.3123 13.4001 18.7206C12.9692 19.1289 12.626 19.6206 12.3912 20.1658C12.1564 20.711 12.0349 21.2983 12.0343 21.8919V28.456C12.0343 28.7461 12.1495 29.0244 12.3547 29.2296C12.5599 29.4347 12.8381 29.55 13.1283 29.55C13.4184 29.55 13.6967 29.4347 13.9019 29.2296C14.107 29.0244 14.2223 28.7461 14.2223 28.456V21.8919C14.2241 21.4605 14.3534 21.0392 14.594 20.6811C14.8345 20.323 15.1756 20.0439 15.5742 19.8791C15.9729 19.7142 16.4114 19.6709 16.8347 19.7546C17.2579 19.8383 17.6469 20.0452 17.9529 20.3493C18.85 21.2136 18.5984 20.7651 18.5984 36.3219C18.5983 37.2844 18.3866 38.2351 17.9783 39.1067C17.5699 39.9783 16.9748 40.7494 16.2353 41.3654L2.47955e-05 46.5466V37.7944L6.2907 35.6546Z" fill="#FDD337"/>
</svg>
