<svg width="48" height="48" viewBox="0 0 48 48" fill="none" xmlns="http://www.w3.org/2000/svg">
<path d="M24.1361 2.00222C20.1939 1.93347 16.3892 3.46739 13.5986 6.25377C10.6748 9.13039 9.02055 13.0575 9.00119 17.1586V36.4076C8.96252 38.8459 9.86696 41.2027 11.5254 42.9902C13.1818 44.7776 15.4655 45.856 17.8996 46H18.3508C20.8299 46 23.2081 45.0139 24.9614 43.2609C26.7147 41.5078 27.7005 39.1297 27.7005 36.6502V36.4698C27.6425 33.6361 29.1141 30.9937 31.5503 29.55C36.006 26.8732 38.7214 22.0479 38.7 16.8512C38.6806 12.967 37.1489 9.244 34.4312 6.4727C31.7115 3.69919 28.0183 2.09676 24.1361 2.00222ZM28.6024 11.6828C26.7506 9.90827 24.0888 9.26381 21.631 9.98994C19.1711 10.7182 17.2914 12.7054 16.7006 15.2018C18.329 15.2018 19.8866 15.8635 21.0188 17.0322C22.5506 18.6219 23.1263 20.9035 22.5312 23.0279C22.1402 24.5897 20.9092 25.4083 19.8307 26.1301L19.4569 26.3772C17.0916 27.9884 16.7071 29.2967 16.7393 31.4472C16.7393 32.5472 17.4096 33.6471 18.6212 33.6471H18.6191C19.1368 33.6514 19.6309 33.4452 19.994 33.08C20.3571 32.7126 20.5569 32.2164 20.5504 31.7008C20.5696 29.8107 21.9651 28.3438 22.9433 27.5471C23.4192 27.1595 24.1023 27.3329 24.4107 27.8637C24.7109 28.3802 24.5426 29.043 24.0954 29.439C23.4353 30.0236 22.7188 30.8741 22.7116 31.7351V31.733C22.6902 33.9845 20.8662 35.8019 18.6148 35.8148C16.3333 35.8148 14.5781 33.9565 14.533 31.4817C14.4771 28.792 15.0829 26.6909 18.213 24.5509L18.604 24.2931C19.4612 23.7432 20.2046 23.2254 20.3914 22.4886C20.7953 21.105 20.4387 19.6119 19.4505 18.5614C18.6921 17.773 17.6287 17.3498 16.5352 17.4013C16.6009 18.2407 16.8141 19.0582 17.1638 19.8172C17.4186 20.3699 17.2902 21.0519 16.7833 21.3887C16.2764 21.7254 15.5859 21.589 15.3122 21.0455C14.3621 19.1588 14.0745 16.9947 14.5158 14.9069C15.0357 12.4578 16.5138 10.3202 18.6213 8.96884C20.7287 7.61971 23.2896 7.17071 25.7324 7.72497C28.1729 8.27709 30.2911 9.78736 31.6105 11.9142C32.9295 14.0411 33.3398 16.6105 32.7512 19.0424C32.2939 20.932 31.2619 22.6192 29.8177 23.8813C29.1724 24.4453 28.2118 24.0979 27.9302 23.2885C27.7916 22.89 27.9171 22.4499 28.2302 22.167C29.5977 20.9319 30.5465 19.6109 30.7662 17.6416C31.0133 15.4267 30.2141 13.2224 28.6028 11.6821L28.6024 11.6828Z" fill="#FDD337"/>
</svg>
