<svg width="42" height="36" viewBox="0 0 42 36" fill="none" xmlns="http://www.w3.org/2000/svg">
<path fill-rule="evenodd" clip-rule="evenodd" d="M12.0718 0.0279444C15.0133 0.241085 18.0783 1.67496 21.0123 4.57695C23.9455 1.67577 27.0078 0.244625 29.9465 0.0362242C33.2632 -0.198996 36.1953 1.1415 38.3168 3.25644C42.4875 7.41468 43.7973 14.939 38.6219 20.1145C38.6045 20.132 38.5865 20.149 38.5682 20.1656L22.0192 35.1558C21.4477 35.6733 20.5768 35.6733 20.0053 35.1558L3.45626 20.1656C3.43796 20.149 3.42008 20.132 3.40262 20.1145C-1.79985 14.9121 -0.497089 7.38684 3.68743 3.23184C5.81401 1.12023 8.75205 -0.212585 12.0718 0.0279444Z" fill="#FDD337"/>
</svg>
