<svg width="48" height="32" viewBox="0 0 48 32" fill="none" xmlns="http://www.w3.org/2000/svg">
<path d="M13.4167 14.1088C15.4001 16.7742 19.2409 17.3007 21.8883 15.277L24.0608 13.6234L26.2333 11.9699L37.5119 22.0886C39.1508 23.5612 39.26 26.0621 37.7556 27.6663C36.3857 29.1306 34.167 29.3527 32.5366 28.2833C32.3601 28.7686 32.0827 29.2375 31.7045 29.6406C30.2001 31.2448 27.6452 31.3518 26.0064 29.8792L24.5776 28.5959C24.418 29.2046 24.107 29.7887 23.6448 30.2905C22.1404 31.903 19.5939 32.0181 17.9466 30.5456L10.265 23.6846H7.89502V5.25692L13.9461 1.30814C15.2656 0.452573 16.8036 -0.00811833 18.3836 0.000108295C19.451 0.000108295 20.5015 0.205774 21.4764 0.608879L14.484 6.1454C12.0216 8.09511 11.5509 11.5997 13.4167 14.1088Z" fill="#FDD337"/>
<path d="M40.4209 23.8422V5.27349H46.7367C47.4315 5.27349 47.9999 5.65656 47.9999 6.39473V23.8422C47.9999 25.3269 46.8709 26.5264 45.4736 26.5264H42.9472C41.5499 26.5264 40.4209 25.3269 40.4209 23.8422Z" fill="#FDD337"/>
<path d="M0 6.57922C0 5.85554 0.592108 5.26343 1.3158 5.26343H7.89477V23.6846C7.89477 25.1402 6.71878 26.3162 5.26318 26.3162H2.63159C1.17599 26.3162 0 25.1402 0 23.6846V6.57922Z" fill="#FDD337"/>
<path d="M24.5308 1.74784L16.3751 8.21157C15.0186 9.28336 14.7574 11.2126 15.7853 12.5894C16.8722 14.0569 18.9869 14.3455 20.4445 13.2325L28.8109 6.8677C29.4007 6.4225 30.2432 6.52143 30.7066 7.09855C31.17 7.67567 31.0604 8.50012 30.4707 8.95357L28.7098 10.2892L40.421 20.8422V5.27651H40.362L40.0334 5.07039L33.9166 1.23668C32.6276 0.428716 31.1194 0 29.586 0C27.7493 0 25.9631 0.61834 24.5308 1.74784Z" fill="#FDD337"/>
</svg>
