<svg width="48" height="48" viewBox="0 0 48 48" fill="none" xmlns="http://www.w3.org/2000/svg">
<path d="M45.7817 31.8442L46.5851 31.27C48.1549 30.1466 48.4223 28.32 47.3687 25.7835C43.805 21.7101 40.5072 18.3268 37.4756 15.6388C33.1098 11.7827 31.6906 11.2518 29.3214 10.2654C24.8766 7.57743 21.3629 7.15337 18.7856 8.98923L17.8308 9.67142L16.6982 10.6328C14.3856 13.3418 14.1749 16.0206 16.0634 18.6637L16.4572 19.2169C16.9352 19.8872 18.4466 20.6526 24.8945 25.3002L24.9669 25.4002C24.9669 25.4002 35.3223 31.8192 35.5238 43.4283L36.8829 59.5655C36.8829 59.5655 37.1226 63.768 41.927 63.768C46.73 63.768 46.73 58.965 46.73 58.965L45.7817 31.8442Z" fill="#FDD337"/>
<path d="M7.38033 14.7607C11.4564 14.7607 14.7607 11.4564 14.7607 7.38033C14.7607 3.30429 11.4564 0 7.38033 0C3.30429 0 0 3.30429 0 7.38033C0 11.4564 3.30429 14.7607 7.38033 14.7607Z" fill="#FDD337"/>
</svg>
