<svg width="48" height="48" viewBox="0 0 48 48" fill="none" xmlns="http://www.w3.org/2000/svg">
<g clip-path="url(#clip0_2610_3840)">
<path d="M28.7604 26.1819H19.24C17.0491 26.1819 15.2729 27.958 15.2729 30.149V48.0001H32.7275V30.149C32.7275 27.958 30.9514 26.1819 28.7604 26.1819Z" fill="#FDD337"/>
<path d="M22.1591 24.532V16.8917C22.1591 15.7431 22.9935 14.8035 24.0134 14.8035C25.0333 14.8035 25.8677 15.7431 25.8677 16.8917V24.532C29.6505 23.8377 32.4827 20.9038 32.4827 14.8088C32.4827 9.54144 27.7612 3.41245 25.3693 0.646046C24.6229 -0.215349 23.4037 -0.215349 22.6574 0.646046C20.2653 3.41285 15.5439 9.54131 15.5439 14.8088C15.5439 20.9011 18.3766 23.8404 22.1591 24.532Z" fill="#FDD337"/>
</g>
<defs>
<clipPath id="clip0_2610_3840">
<rect width="48" height="48" fill="white"/>
</clipPath>
</defs>
</svg>
