<svg width="43" height="45" viewBox="0 0 43 45" fill="none" xmlns="http://www.w3.org/2000/svg">
<path d="M2.38277 9.25015H9.01672V10.6517C9.01672 12.427 10.465 13.8285 12.1935 13.8285H15.2302C17.0055 13.8285 18.407 12.3803 18.407 10.6517V9.25015H40.3645C41.6726 9.25015 42.7004 8.17564 42.7004 6.91426C42.7004 5.60615 41.6258 4.57836 40.3645 4.57836H18.407V3.17682C18.407 1.40154 16.9588 0 15.2302 0H12.1935C10.4183 0 9.01672 1.44826 9.01672 3.17682V4.57836H2.38277C1.07467 4.57836 0.046875 5.65287 0.046875 6.91426C0.046875 8.22236 1.12139 9.25015 2.38277 9.25015Z" fill="#FDD337"/>
<path d="M40.3176 19.8552H33.6836V18.4537C33.6836 16.6784 32.2354 15.2769 30.5068 15.2769H27.4701C25.6949 15.2769 24.2933 16.7251 24.2933 18.4537V19.8552H2.3359C1.02779 19.8552 0 20.9297 0 22.1911C0 23.4525 1.07451 24.527 2.3359 24.527H24.2933V25.9285C24.2933 27.6571 25.7416 29.1054 27.4701 29.1054H30.5068C32.2821 29.1054 33.6836 27.6571 33.6836 25.9285V24.527H40.3176C41.6257 24.527 42.6535 23.4525 42.6535 22.1911C42.6535 20.9297 41.579 19.8552 40.3176 19.8552Z" fill="#FDD337"/>
<path d="M40.3177 35.1318H18.3603V33.7303C18.3603 31.955 16.9121 30.5535 15.1835 30.5535H12.1468C10.3715 30.5535 8.97 32.0017 8.97 33.7303V35.1318H2.38277C1.07467 35.1318 0.046875 36.2063 0.046875 37.4677C0.046875 38.7758 1.12139 39.8036 2.38277 39.8036H9.01672V41.2052C9.01672 42.9804 10.465 44.382 12.1935 44.382H15.2302C17.0055 44.382 18.407 42.9337 18.407 41.2052V39.8036H40.3645C41.6726 39.8036 42.7004 38.7291 42.7004 37.4677C42.6536 36.1596 41.5791 35.1318 40.3177 35.1318Z" fill="#FDD337"/>
</svg>
