<svg width="48" height="48" viewBox="0 0 48 48" fill="none" xmlns="http://www.w3.org/2000/svg">
<path d="M23.9108 0C20.9473 0 18.5454 2.40193 18.5454 5.36537C18.5454 8.32881 20.9473 10.7307 23.9108 10.7307C26.8742 10.7307 29.2761 8.32881 29.2761 5.36537C29.2761 2.40193 26.8742 0 23.9108 0Z" fill="#FDD337"/>
<path d="M16.2745 12C13.3111 12 10.9092 14.4019 10.9092 17.3654C10.9092 20.3288 13.3111 22.7307 16.2745 22.7307C19.238 22.7307 21.6399 20.3288 21.6399 17.3654C21.6399 14.4019 19.238 12 16.2745 12Z" fill="#FDD337"/>
<path d="M31.547 12C28.5836 12 26.1816 14.4019 26.1816 17.3654C26.1816 20.3288 28.5836 22.7307 31.547 22.7307C34.5105 22.7307 36.9124 20.3288 36.9124 17.3654C36.9124 14.4019 34.5105 12 31.547 12Z" fill="#FDD337"/>
<path d="M18.5264 31.9236L11.0111 24.0005C10.6698 23.6435 10.2122 23.4419 9.71751 23.4364C9.22814 23.431 8.7679 23.6272 8.42132 23.9841C7.83673 24.589 7.72031 25.5235 8.14093 26.2619L8.36577 26.657C9.54555 28.7305 10.8946 30.6978 12.4024 32.5342L13.7964 34.2317C14.0054 34.4878 14.1059 34.8148 14.0794 35.1472C14.053 35.4796 13.9022 35.7821 13.6509 36.0001C13.4023 36.2153 13.0848 36.3188 12.7621 36.2916C12.4394 36.2644 12.1431 36.1063 11.9341 35.8502L10.6115 34.2399C8.95564 32.2236 7.47167 30.0602 6.18076 27.7769L6.04056 27.529C5.08296 25.8315 5.30521 23.6653 6.64367 22.2676C6.76535 22.1395 6.89232 22.0169 7.02194 21.9106L4.07513 15.3904C3.73389 14.6411 2.97999 14.1316 2.17584 14.1207C1.57009 14.1098 1.00134 14.3523 0.583389 14.8101C0.165441 15.2651 -0.0408817 15.8618 0.00673072 16.4857L1.28172 33.7222C1.40076 35.3271 2.11235 36.8256 3.27094 37.9046L9.32322 43.5474C9.69356 43.8907 9.9184 44.3703 9.95279 44.8825L10.1009 47.0269C10.138 47.5745 10.5824 47.9996 11.114 47.9996H19.8964C20.4916 47.9996 20.9571 47.4792 20.9095 46.8715L20.0128 35.142C19.8779 33.9377 19.3541 32.7933 18.5288 31.9268L18.5264 31.9236Z" fill="#FDD337"/>
<path d="M47.4118 14.8076C46.9912 14.3498 46.4251 14.1046 45.8193 14.1182C45.0178 14.1291 44.2613 14.6359 43.9227 15.3879L40.9759 21.9081C41.1055 22.0144 41.2298 22.137 41.3541 22.2651C42.6927 23.6628 42.9148 25.829 41.9573 27.5265L41.8171 27.7744C40.5262 30.0577 39.0448 32.2184 37.3863 34.2374L36.0637 35.8477C35.8547 36.1038 35.5611 36.2619 35.2357 36.2891C34.913 36.3163 34.5955 36.2128 34.3469 35.9976C34.0982 35.7796 33.9475 35.4771 33.9184 35.1447C33.8919 34.8096 33.9924 34.4853 34.2014 34.2292L35.5954 32.5317C37.1006 30.6953 38.4523 28.728 39.632 26.6545L39.8569 26.2594C40.2775 25.521 40.1611 24.5865 39.5765 23.9816C39.23 23.6247 38.7697 23.4285 38.2803 23.4339C37.783 23.4421 37.3253 23.641 36.9868 23.998L29.4714 31.9211C28.6461 32.7876 28.1224 33.9319 27.9875 35.1363L27.0907 46.8658C27.0431 47.4734 27.5113 47.9938 28.1039 47.9938H36.8862C37.4205 47.9938 37.8623 47.5688 37.8993 47.0211L38.0475 44.8768C38.0818 44.3646 38.3093 43.8877 38.677 43.5417L44.7293 37.8989C45.8879 36.8199 46.6021 35.3213 46.7185 33.7165L47.9935 16.48C48.0411 15.856 47.8348 15.2593 47.4169 14.8043L47.4118 14.8076Z" fill="#FDD337"/>
</svg>
