<svg width="44" height="40" viewBox="0 0 44 40" fill="none" xmlns="http://www.w3.org/2000/svg">
<path d="M20.5599 8.8334C20.6824 9.91072 21.1929 10.9101 21.9999 11.6521C22.2294 11.8634 22.5214 11.9979 22.834 12.0362C23.1465 12.0746 23.4634 12.0149 23.7391 11.8657C25.8407 10.729 27.4657 8.90302 28.3284 6.70905C28.5821 6.06432 28.5936 5.3523 28.3609 4.70001C28.1283 4.04773 27.6665 3.49765 27.058 3.14783C24.6449 1.76152 22.0413 0.721005 19.3267 0.0579327C19.0382 -0.0126445 18.7372 -0.018817 18.4459 0.0398618C18.1546 0.0985405 17.8806 0.220508 17.6439 0.396875C12.7408 4.05176 8.72386 8.72322 5.88071 14.0766C3.03756 19.4299 1.43862 25.3327 1.19842 31.3621C0.719982 31.7418 0.362134 32.2472 0.166904 32.8192C-0.0283258 33.3911 -0.0528298 34.0057 0.0962701 34.5908C0.24537 35.1759 0.561882 35.7072 1.00863 36.1223C1.45538 36.5374 2.01381 36.8189 2.61833 36.934C5.11561 37.635 7.61658 38.3233 10.1211 38.999C15.9691 40.4785 22.1244 40.3152 27.8819 38.5278C33.6395 36.7404 38.7665 33.4011 42.6756 28.8926C43.2771 28.199 43.6918 27.3691 43.882 26.4785C44.0722 25.5879 44.032 24.6649 43.7648 23.7934C43.4977 22.9219 43.0123 22.1297 42.3526 21.4889C41.693 20.8481 40.8802 20.379 39.9881 20.1243C37.7946 19.4986 35.4511 19.6023 33.3242 20.4192C31.1972 21.2362 29.4067 22.7203 28.2326 24.6395C26.7211 22.928 24.5829 21.8672 22.2796 21.6861C19.9762 21.505 17.6926 22.2181 15.9215 23.6714C15.7201 18.3885 16.4422 13.1106 18.0567 8.06583C18.0693 8.0264 18.0904 7.99006 18.1185 7.95922C18.1466 7.92837 18.1811 7.90373 18.2196 7.88693C18.2582 7.87013 18.3 7.86153 18.3422 7.86175C18.3844 7.86196 18.4261 7.87098 18.4645 7.88818L20.5599 8.8334Z" fill="#FDD337"/>
</svg>
