<svg width="43" height="43" viewBox="0 0 43 43" fill="none" xmlns="http://www.w3.org/2000/svg">
<path fill-rule="evenodd" clip-rule="evenodd" d="M3.23067e-05 30.4999C0.000479546 27.7726 0.892883 25.1203 2.54115 22.9474C4.18942 20.7746 6.50311 19.2004 9.12937 18.465C11.7556 17.7296 14.5504 17.8732 17.0874 18.8741C19.6244 19.875 21.7644 21.6782 23.1812 24.0086C24.5979 26.339 25.2136 29.0689 24.9343 31.7819C24.6551 34.4948 23.4962 37.042 21.6344 39.035C19.7727 41.028 17.3102 42.3574 14.6225 42.8204C11.9348 43.2835 9.16942 42.8549 6.74803 41.5999L2.32403 42.4239C2.08479 42.4682 1.83837 42.4536 1.60602 42.3815C1.37366 42.3093 1.16235 42.1817 0.990308 42.0096C0.818265 41.8376 0.690655 41.6263 0.618482 41.3939C0.546309 41.1616 0.53174 40.9151 0.576032 40.6759L1.40003 36.2519C0.475817 34.4757 -0.00453778 32.5022 3.23067e-05 30.4999Z" fill="#FDD337"/>
<path fill-rule="evenodd" clip-rule="evenodd" d="M43.0001 17.5C43.0001 15.2019 42.5475 12.9262 41.668 10.803C40.7886 8.67984 39.4995 6.75066 37.8745 5.12563C36.2495 3.50061 34.3203 2.21157 32.1971 1.33211C30.0739 0.452651 27.7983 0 25.5001 0C16.9681 0 9.30412 6.5 8.17612 15.018L8.17212 15.026L8.16012 15.152L8.12012 15.628C10.7923 14.8394 13.6277 14.7857 16.3279 15.4725C19.0281 16.1592 21.4932 17.5611 23.4639 19.5306C25.4347 21.5001 26.8381 23.9644 27.5265 26.6641C28.215 29.3639 28.163 32.1993 27.3761 34.872C27.6299 34.8522 27.8833 34.8275 28.1361 34.798L28.2301 34.786L28.2581 34.784L28.2661 34.782H28.2701L28.3041 34.776C30.2112 34.4682 32.0537 33.845 33.7561 32.932L40.4261 34.174C40.6654 34.2183 40.9118 34.2037 41.1441 34.1315C41.3765 34.0594 41.5878 33.9318 41.7598 33.7597C41.9319 33.5877 42.0595 33.3764 42.1317 33.144C42.2038 32.9117 42.2184 32.6652 42.1741 32.426L40.9341 25.756C42.2956 23.2174 43.0055 20.3806 43.0001 17.5Z" fill="#FDD337"/>
</svg>
