<svg width="48" height="48" viewBox="0 0 48 48" fill="none" xmlns="http://www.w3.org/2000/svg">
<path d="M24 3C35.598 3 45 12.402 45 24C45 35.598 35.598 45 24 45C12.402 45 3 35.598 3 24C3 12.402 12.402 3 24 3ZM25.5557 26.4805C25.2806 26.4805 25.0167 26.5897 24.8223 26.7832C24.6279 26.9767 24.5186 27.2391 24.5186 27.5127V34.7373C24.5186 35.0109 24.6279 35.2733 24.8223 35.4668C25.0167 35.6603 25.2806 35.7695 25.5557 35.7695H36.9629C37.2379 35.7695 37.5018 35.6603 37.6963 35.4668C37.8907 35.2733 38 35.0109 38 34.7373V27.5127C38 27.2391 37.8907 26.9767 37.6963 26.7832C37.5018 26.5897 37.2379 26.4805 36.9629 26.4805H25.5557ZM16.2227 15.1279C16.005 15.1279 15.7928 15.1966 15.6162 15.3232C15.4396 15.4499 15.3071 15.6284 15.2383 15.834L10.0537 31.3145C10.0017 31.4696 9.98694 31.6352 10.0117 31.7969C10.0365 31.9583 10.0994 32.1116 10.1953 32.2441C10.2914 32.3768 10.4182 32.4851 10.5645 32.5596C10.7107 32.6341 10.8728 32.6729 11.0371 32.6729H21.4072C21.5715 32.6729 21.7336 32.6341 21.8799 32.5596C22.0262 32.4851 22.1529 32.3768 22.249 32.2441C22.3449 32.1116 22.4078 31.9583 22.4326 31.7969C22.4574 31.6352 22.4436 31.4696 22.3916 31.3145L17.2061 15.834C17.1373 15.6286 17.0055 15.4499 16.8291 15.3232C16.6526 15.1966 16.4402 15.128 16.2227 15.1279ZM30.7275 11.5107C29.4959 11.003 28.1405 10.8701 26.833 11.1289C25.5255 11.3878 24.3245 12.0267 23.3818 12.9648C22.4392 13.903 21.7972 15.0982 21.5371 16.3994C21.277 17.7007 21.4107 19.0496 21.9209 20.2754C22.4311 21.5012 23.2948 22.549 24.4033 23.2861C25.5118 24.0232 26.8153 24.417 28.1484 24.417C29.9355 24.4149 31.6485 23.7068 32.9121 22.4492C34.1757 21.1916 34.8866 19.4865 34.8887 17.708C34.8886 16.3814 34.4935 15.0845 33.7529 13.9814C33.0122 12.8783 31.9592 12.0185 30.7275 11.5107Z" fill="#FDD337"/>
</svg>
