<svg width="48" height="48" viewBox="0 0 48 48" fill="none" xmlns="http://www.w3.org/2000/svg">
<path fill-rule="evenodd" clip-rule="evenodd" d="M27.1141 0.994385C28.3421 0.994232 29.5522 1.28869 30.6428 1.85302C31.7334 2.41736 32.6727 3.2351 33.3817 4.23759C34.0908 5.24007 34.5489 6.39802 34.7177 7.61421C34.8198 8.35053 34.8141 9.09519 34.7029 9.82509C34.5964 10.5234 35.0925 11.2269 35.7989 11.2269H42.9766C43.5418 11.2269 44 11.6851 44 12.2503V20.5869C44 21.2096 43.4486 21.6879 42.8322 21.6001L42.248 21.5168C41.4493 21.402 40.6353 21.4602 39.8611 21.6874C39.0869 21.9147 38.3707 22.3058 37.7609 22.8341C37.1511 23.3624 36.662 24.0156 36.3268 24.7495C35.9916 25.4833 35.8182 26.2806 35.8182 27.0874C35.8182 27.8942 35.9916 28.6915 36.3268 29.4254C36.662 30.1592 37.1511 30.8124 37.7609 31.3407C38.3707 31.869 39.0869 32.2601 39.8611 32.4874C40.6353 32.7146 41.4493 32.7728 42.248 32.658L42.8322 32.5748C43.4486 32.4869 44 32.9653 44 33.5879V43.971C44 44.5362 43.5418 44.9944 42.9766 44.9944H32.592C31.9693 44.9944 31.4909 44.443 31.5788 43.8266L31.6621 43.2426C31.7769 42.444 31.7187 41.6301 31.4914 40.856C31.2641 40.082 30.873 39.3658 30.3446 38.7561C29.8162 38.1463 29.1629 37.6573 28.429 37.3222C27.695 36.9871 26.8976 36.8136 26.0907 36.8136C25.2839 36.8136 24.4864 36.9871 23.7525 37.3222C23.0186 37.6573 22.3652 38.1463 21.8369 38.7561C21.3085 39.3658 20.9174 40.082 20.6901 40.856C20.4628 41.6301 20.4046 42.444 20.5194 43.2426L20.6027 43.8266C20.6905 44.443 20.2122 44.9944 19.5895 44.9944H11.2516C10.6864 44.9944 10.2283 44.5362 10.2283 43.971V36.7932C10.2283 36.0872 9.52539 35.5912 8.82741 35.6971C8.09743 35.8079 7.35277 35.8132 6.6165 35.7107C5.40082 35.5414 4.24348 35.083 3.24158 34.3741C2.23968 33.6651 1.42243 32.7263 0.858395 31.6363C0.294365 30.5463 0 29.3369 0 28.1096C0 26.8824 0.294365 25.673 0.858395 24.583C1.42243 23.493 2.23968 22.5542 3.24158 21.8452C4.24348 21.1363 5.40082 20.6779 6.6165 20.5086C7.35277 20.4061 8.09743 20.4114 8.82741 20.5222C9.52539 20.6281 10.2283 20.1321 10.2283 19.4261V12.2503C10.2283 11.6851 10.6864 11.2269 11.2516 11.2269H18.4294C19.1357 11.2269 19.6318 10.5234 19.5254 9.82509C19.4141 9.09519 19.4084 8.35053 19.5106 7.61421C19.6793 6.39802 20.1375 5.24007 20.8465 4.23759C21.5556 3.2351 22.4948 2.41736 23.5854 1.85302C24.676 1.28869 25.8861 0.994232 27.1141 0.994385Z" fill="#6AC98B"/>
</svg>
