<svg width="48" height="48" viewBox="0 0 48 48" fill="none" xmlns="http://www.w3.org/2000/svg">
<g clip-path="url(#clip0_2610_3133)">
<path d="M40.7504 5.7502C45.5667 10.5671 45.5668 18.4329 40.7504 23.2497C36.6406 27.3595 30.3646 27.9783 25.5918 25.0617L20.7553 29.8982L23.9649 33.1078C24.3555 33.4983 24.3555 34.1315 23.9649 34.522L21.8436 36.6433C21.4531 37.0338 20.8199 37.0338 20.4294 36.6433L17.2198 33.4337L14.3914 36.2621L17.601 39.4717C17.9915 39.8623 17.9915 40.4954 17.601 40.886L15.4797 43.0073C15.0891 43.3978 14.456 43.3978 14.0655 43.0073L10.8559 39.7977L6.45162 44.2019C5.30264 45.3509 3.44636 45.3509 2.29737 44.2019C1.19278 43.0088 1.19214 41.1531 2.34088 40.0041L21.3941 20.9523C18.4775 16.1797 19.0958 9.90425 23.2054 5.7944C28.0665 0.933286 35.9335 0.933283 40.7504 5.7502ZM36.5513 9.94796C34.0324 7.42906 29.9227 7.38553 27.3596 9.94865C24.7968 12.5118 24.885 16.5766 27.4038 19.0955C29.9227 21.6144 34.0331 21.6586 36.5962 19.0955C39.1147 16.5765 39.0701 12.4668 36.5513 9.94796Z" fill="#6AC98B"/>
</g>
<defs>
<clipPath id="clip0_2610_3133">
<rect width="48" height="48" fill="white"/>
</clipPath>
</defs>
</svg>
