<svg width="48" height="48" viewBox="0 0 48 48" fill="none" xmlns="http://www.w3.org/2000/svg">
<path d="M24.7078 4.00977C26.8453 4.0963 28.9271 4.72205 30.7576 5.8291C32.5882 6.93622 34.1093 8.48888 35.1785 10.3418L35.3563 10.668L35.7117 10.7461C37.5476 11.1763 39.2652 12.011 40.7371 13.1895C42.2089 14.3679 43.3993 15.8604 44.2205 17.5576L44.4305 18.0137C45.2664 19.9311 45.614 22.0265 45.4432 24.1113C45.2724 26.196 44.5878 28.2062 43.451 29.9619C42.3142 31.7176 40.7598 33.1649 38.9276 34.1738C37.0954 35.1826 35.0415 35.7222 32.95 35.7441L32.6619 35.7402L32.5877 35.8438C31.3444 37.4827 29.6478 38.7216 27.7078 39.4062C25.7677 40.0909 23.6685 40.1919 21.6717 39.6963L21.3006 39.5938L14.4305 43.7139C14.1438 43.8859 13.8173 43.9832 13.4832 43.9971C13.1493 44.0108 12.8172 43.9406 12.5174 43.793C12.2175 43.6452 11.9591 43.4246 11.7664 43.1514C11.5738 42.8779 11.4522 42.5598 11.4139 42.2275L11.4022 42V37.1299L11.2918 37.0781C9.97912 36.4136 8.89663 35.3695 8.1844 34.082L7.9803 33.6836C7.34727 32.3521 7.12975 30.8611 7.35628 29.4043L7.43245 28.9844L7.20003 28.7998C5.47453 27.3705 4.19988 25.4721 3.53011 23.334C2.86036 21.1956 2.82455 18.9085 3.42659 16.75L3.56819 16.2744C4.31604 13.977 5.76257 11.9698 7.70589 10.5342C9.64915 9.09869 11.9924 8.30529 14.408 8.26562H14.7225L15.0223 7.93555C17.2892 5.55168 20.3955 4.14351 23.6824 4.00977L24.202 4L24.7078 4.00977ZM15.4022 20C13.7453 20 12.4022 21.3431 12.4022 23C12.4022 24.6569 13.7453 26 15.4022 26C17.059 25.9999 18.4022 24.6568 18.4022 23C18.4022 21.3432 17.059 20.0001 15.4022 20ZM24.4022 20C22.7453 20 21.4022 21.3431 21.4022 23C21.4022 24.6569 22.7453 26 24.4022 26C26.059 25.9999 27.4022 24.6568 27.4022 23C27.4022 21.3432 26.059 20.0001 24.4022 20ZM33.4022 20C31.7453 20 30.4022 21.3431 30.4022 23C30.4022 24.6569 31.7453 26 33.4022 26C35.059 25.9999 36.4022 24.6568 36.4022 23C36.4022 21.3432 35.059 20.0001 33.4022 20Z" fill="#6AC98B"/>
</svg>
