<svg width="48" height="48" viewBox="0 0 48 48" fill="none" xmlns="http://www.w3.org/2000/svg">
<g clip-path="url(#clip0_2610_10199)">
<path fill-rule="evenodd" clip-rule="evenodd" d="M27.0451 39.2201V44.7528C27.0451 45.1672 26.7112 45.5027 26.2968 45.5027L21.7037 45.5C21.2941 45.5 20.9597 45.1651 20.9597 44.7528L20.9554 39.2201C20.9554 35.419 17.8727 32.3379 14.0727 32.3379H8.7937C8.63797 32.3379 8.51316 32.4638 8.51316 32.619V35.235C8.51316 35.8665 7.76489 36.219 7.27902 35.8062L0.284807 29.8755C-0.0805304 29.5774 -0.102931 29.0232 0.267207 28.7134L7.24808 22.8674C7.82302 22.3848 8.51316 22.8264 8.51316 23.4125V25.9672C8.51316 26.1224 8.63797 26.2483 8.7937 26.2483H14.0727C21.2365 26.2483 27.0451 32.0563 27.0451 39.2201ZM22.4786 27.1395C22.412 27.2643 22.4477 27.4168 22.5634 27.4995C24.2339 28.7118 25.6285 30.2659 26.644 32.0467C26.7731 32.2734 27.116 32.2163 27.1651 31.9593C27.7667 28.7651 30.5731 26.3629 33.9278 26.3629H39.2068C39.3626 26.3629 39.4874 26.4893 39.4874 26.6445V29.26C39.4874 29.8392 40.1732 30.2968 40.7615 29.7976L47.7381 23.8845C48.0901 23.5837 48.0859 23.0354 47.7339 22.7394L40.7172 16.8642C40.2319 16.4551 39.4879 16.8087 39.4879 17.4386V19.9938C39.4879 20.149 39.3631 20.2754 39.2074 20.2754H33.9284C29.0723 20.2754 24.7112 22.9693 22.4792 27.1405L22.4786 27.1395ZM27.4595 20.1271V11.7932C27.4595 11.6385 27.5843 11.5121 27.74 11.5121H30.3683C30.9475 11.5121 31.4062 10.8278 30.907 10.2385L24.9907 3.26401C24.692 2.90881 24.1443 2.91414 23.8456 3.26721L17.9693 10.2817C17.5597 10.7708 17.9159 11.511 18.5442 11.511L21.1016 11.5121C21.2578 11.5121 21.3864 11.6385 21.3864 11.7932V25.0413C21.3864 25.3187 21.7426 25.428 21.8989 25.1981C23.2621 23.164 25.1245 21.501 27.3027 20.3773C27.4008 20.3277 27.4584 20.2354 27.4584 20.1271H27.4595Z" fill="#6AC98B" stroke="#6AC98B" stroke-width="0.6"/>
</g>
<defs>
<clipPath id="clip0_2610_10199">
<rect width="48" height="48" fill="white"/>
</clipPath>
</defs>
</svg>
