<svg width="48" height="48" viewBox="0 0 48 48" fill="none" xmlns="http://www.w3.org/2000/svg">
<path d="M0 22.5V25.5C12 43.5 36 43.5 48 25.5V22.5C36 4.5 12 4.5 0 22.5ZM24 36C17.3719 36 12 30.6281 12 24C12 17.3719 17.3719 12 24 12C30.6281 12 36 17.3719 36 24C36 30.6281 30.6281 36 24 36ZM24 17.25C24 16.4719 24.1594 15.7406 24.4031 15.0375C24.2625 15.0281 24.1406 15 24 15C19.0312 15 15 19.0312 15 24C15 28.9688 19.0312 33 24 33C28.9688 33 33 28.9688 33 24C33 23.8594 32.9625 23.7375 32.9625 23.5969C32.2687 23.8406 31.5281 24 30.75 24C27.0187 24 24 20.9812 24 17.25Z" fill="#6AC98B"/>
</svg>
