<svg width="48" height="48" viewBox="0 0 48 48" fill="none" xmlns="http://www.w3.org/2000/svg">
<path d="M32.8767 17.7534C29.8856 17.7534 26.9617 18.6404 24.4747 20.3022C21.9877 21.9639 20.0493 24.3259 18.9046 27.0893C17.76 29.8527 17.4605 32.8935 18.044 35.8271C18.6276 38.7607 20.0679 41.4555 22.1829 43.5705C24.298 45.6855 26.9927 47.1259 29.9263 47.7094C32.8599 48.2929 35.9007 47.9934 38.6641 46.8488C41.4276 45.7042 43.7895 43.7658 45.4513 41.2788C47.113 38.7917 48 35.8678 48 32.8767C47.9949 28.8673 46.3999 25.0236 43.5648 22.1886C40.7298 19.3535 36.8861 17.7585 32.8767 17.7534ZM40.6092 30.2203L32.7187 39.4257C32.5515 39.6212 32.3473 39.7817 32.1179 39.8981C31.8885 40.0144 31.6384 40.0844 31.3819 40.104C31.1254 40.1236 30.8676 40.0923 30.6232 40.0121C30.3788 39.9318 30.1526 39.8042 29.9576 39.6364L25.3549 35.6912C24.9587 35.3525 24.7131 34.8706 24.6718 34.351C24.6305 33.8315 24.7969 33.3168 25.1346 32.9198C25.4722 32.5228 25.9536 32.2759 26.473 32.2333C26.9924 32.1907 27.5075 32.3558 27.9054 32.6924L31.0094 35.3489L37.6374 27.6428C37.8066 27.4476 38.0126 27.2878 38.2437 27.1722C38.4747 27.0567 38.7262 26.9879 38.9839 26.9696C39.2415 26.9513 39.5002 26.9839 39.7453 27.0656C39.9903 27.1473 40.2169 27.2764 40.412 27.4457C40.6071 27.6149 40.767 27.8209 40.8825 28.052C40.998 28.283 41.0669 28.5345 41.0852 28.7922C41.1035 29.0498 41.0709 29.3085 40.9892 29.5536C40.9075 29.7986 40.7784 30.0251 40.6092 30.2203Z" fill="#6AC98B"/>
<path d="M15.1233 30.2466C18.1144 30.2466 21.0383 29.3596 23.5253 27.6978C26.0123 26.0361 27.9507 23.6741 29.0954 20.9107C30.24 18.1473 30.5395 15.1065 29.956 12.1729C29.3724 9.23926 27.9321 6.54454 25.8171 4.42951C23.702 2.31449 21.0073 0.874132 18.0737 0.290597C15.1401 -0.292939 12.0993 0.00655268 9.33586 1.1512C6.57244 2.29584 4.2105 4.23423 2.54873 6.72125C0.886965 9.20826 0 12.1322 0 15.1233C0.00467075 19.1328 1.59951 22.9768 4.43467 25.8119C7.26982 28.6471 11.1138 30.2419 15.1233 30.2466ZM9.12586 11.9152C8.7582 11.5449 8.55229 11.0439 8.55324 10.522C8.55419 10.0002 8.76192 9.49996 9.13094 9.13094C9.49995 8.76193 10.0002 8.5542 10.522 8.55325C11.0439 8.5523 11.5449 8.7582 11.9152 9.12587L15.1233 12.3339L18.3313 9.12587C18.7017 8.7582 19.2027 8.5523 19.7245 8.55325C20.2464 8.5542 20.7466 8.76193 21.1156 9.13094C21.4847 9.49996 21.6924 10.0002 21.6933 10.522C21.6943 11.0439 21.4884 11.5449 21.1207 11.9152L17.9127 15.1233L21.1207 18.3314C21.305 18.5143 21.4513 18.7317 21.5513 18.9713C21.6513 19.2109 21.703 19.4679 21.7035 19.7275C21.704 19.9871 21.6532 20.2443 21.554 20.4843C21.4549 20.7242 21.3094 20.9422 21.1258 21.1258C20.9422 21.3094 20.7242 21.4549 20.4842 21.5541C20.2443 21.6532 19.9871 21.704 19.7275 21.7035C19.4679 21.703 19.2109 21.6513 18.9713 21.5513C18.7317 21.4513 18.5143 21.305 18.3313 21.1207L15.1233 17.9127L11.9152 21.1207C11.5449 21.4884 11.0439 21.6943 10.522 21.6933C10.0002 21.6924 9.49995 21.4847 9.13094 21.1156C8.76192 20.7466 8.55419 20.2464 8.55324 19.7245C8.55229 19.2027 8.7582 18.7017 9.12586 18.3314L12.3339 15.1233L9.12586 11.9152Z" fill="#6AC98B"/>
</svg>
