<svg width="72" height="72" viewBox="0 0 72 72" fill="none" xmlns="http://www.w3.org/2000/svg">
<rect x="0.5" y="0.5" width="71" height="71" rx="35.5" fill="white" fill-opacity="0.2"/>
<rect x="0.5" y="0.5" width="71" height="71" rx="35.5" stroke="url(#paint0_linear_659_1908)"/>
<path d="M33.5001 49.3333C33.5001 49.9963 33.7635 50.6322 34.2323 51.1011C34.7012 51.5699 35.337 51.8333 36.0001 51.8333C36.6631 51.8333 37.299 51.5699 37.7678 51.1011C38.2367 50.6322 38.5001 49.9963 38.5001 49.3333V38.5H49.3334C49.9965 38.5 50.6323 38.2366 51.1012 37.7677C51.57 37.2989 51.8334 36.663 51.8334 36C51.8334 35.3369 51.57 34.701 51.1012 34.2322C50.6323 33.7634 49.9965 33.5 49.3334 33.5H38.5001V22.6666C38.5001 22.0036 38.2367 21.3677 37.7678 20.8989C37.299 20.43 36.6631 20.1666 36.0001 20.1666C35.337 20.1666 34.7012 20.43 34.2323 20.8989C33.7635 21.3677 33.5001 22.0036 33.5001 22.6666V33.5H22.6667C22.0037 33.5 21.3678 33.7634 20.899 34.2322C20.4301 34.701 20.1667 35.3369 20.1667 36C20.1667 36.663 20.4301 37.2989 20.899 37.7677C21.3678 38.2366 22.0037 38.5 22.6667 38.5H33.5001V49.3333Z" fill="white"/>
<defs>
<linearGradient id="paint0_linear_659_1908" x1="0" y1="0" x2="72" y2="72" gradientUnits="userSpaceOnUse">
<stop stop-color="white"/>
<stop offset="1" stop-color="white" stop-opacity="0"/>
</linearGradient>
</defs>
</svg>
