<svg width="72" height="72" viewBox="0 0 72 72" fill="none" xmlns="http://www.w3.org/2000/svg">
<g opacity="0.7">
<path fill-rule="evenodd" clip-rule="evenodd" d="M22.6077 9.04192C27.0199 9.36163 31.6174 11.5124 36.0184 15.8654C40.4183 11.5137 45.0117 9.36694 49.4198 9.05434C54.3948 8.70151 58.7929 10.7122 61.9752 13.8847C68.2313 20.122 70.1959 31.4085 62.4328 39.1718C62.4067 39.198 62.3797 39.2235 62.3523 39.2484L37.5288 61.7337C36.6715 62.5099 35.3652 62.5099 34.5079 61.7337L9.68439 39.2484C9.65694 39.2235 9.63012 39.198 9.60393 39.1718C1.80023 31.3681 3.75437 20.0803 10.0311 13.8478C13.221 10.6803 17.6281 8.68112 22.6077 9.04192Z" fill="white"/>
</g>
</svg>
