<svg width="72" height="72" viewBox="0 0 72 72" fill="none" xmlns="http://www.w3.org/2000/svg">
<g opacity="0.7">
<path d="M68.2897 24.5208C65.9616 24.5208 64.1509 26.3315 64.1509 28.6596C64.1509 29.1769 64.1509 29.4356 64.4096 29.9529L54.0627 36.6784L39.577 18.3122C40.8703 17.2775 41.905 15.7255 41.905 14.1735C41.905 11.3281 39.577 9 36.7316 9C33.8862 9 31.5581 11.3281 31.5581 14.1735C31.5581 15.9842 32.3341 17.5362 33.8862 18.3122L19.4005 36.6784L9.05356 29.9529C9.31223 29.4356 9.31223 29.1769 9.31223 28.6596C9.31223 26.3315 7.50152 24.5208 5.17346 24.5208C1.81071 24.5208 0 26.3315 0 28.6596C0 30.9876 1.81071 32.7983 4.13877 32.7983H4.65612L12.4163 55.8198V62.804C12.4163 63.3213 12.9337 63.58 13.1923 63.58H58.7188C59.2361 63.58 59.4948 63.0627 59.4948 62.804V55.8198L67.255 32.7983H67.7723C70.1004 32.7983 71.9111 30.9876 71.9111 28.6596C72.4285 26.3315 70.6178 24.5208 68.2897 24.5208Z" fill="white"/>
</g>
</svg>
