<svg width="45" height="44" viewBox="0 0 45 44" fill="none" xmlns="http://www.w3.org/2000/svg">
<path d="M35.0429 39.8524C35.0429 40.3503 34.8468 40.8262 34.4943 41.1765L34.2012 41.4696C33.4697 42.1989 32.2843 42.1989 31.5528 41.4696L11.0223 20.9402C10.2908 20.2087 10.2908 19.0234 11.0223 18.292L11.3153 17.9989C12.0446 17.2674 13.23 17.2674 13.9615 17.9989L34.4921 38.5283H34.4943C34.8468 38.8786 35.0429 39.3567 35.0429 39.8524Z" fill="#6B9CF0"/>
<path d="M22.118 33.6307L18.9122 39.0771C17.372 41.7077 14.7104 43.4835 11.6917 43.8999C8.72819 44.3274 5.72961 43.3712 3.56137 41.3045C3.49968 41.245 3.43799 41.1855 3.3763 41.1239C3.31461 41.0622 3.25512 41.0005 3.19562 40.9388C1.12887 38.7708 0.172621 35.7722 0.600063 32.8089C1.01649 29.7905 2.79238 27.1292 5.42319 25.5889L10.8676 22.381L14.3401 25.8532V25.8554C14.2189 25.9634 14.0867 26.0603 13.9457 26.1441L7.85782 29.7265C6.49173 30.5263 5.57074 31.9099 5.35482 33.4764C5.13449 34.99 5.62143 36.5212 6.6746 37.6294C6.7363 37.6955 6.80239 37.7616 6.86849 37.8233V37.8255C7.79608 38.7068 9.02776 39.1981 10.3057 39.1937C12.1411 39.1915 13.8399 38.2221 14.7719 36.6402L18.3568 30.555H18.3546C18.4383 30.414 18.5353 30.2818 18.6454 30.1606L22.118 33.6307Z" fill="#6B9CF0"/>
<path d="M31.9608 29.2951C31.963 29.793 31.7647 30.2689 31.4122 30.6193L31.1191 30.9123C30.3876 31.6416 29.2044 31.6416 28.4729 30.9123L14.7596 17.2014C14.0281 16.4699 14.0281 15.2846 14.7596 14.5532L15.0526 14.2601C15.7798 13.5331 16.9563 13.5309 17.69 14.2513L31.4124 27.9729C31.7649 28.321 31.963 28.7993 31.9608 29.2951Z" fill="#6B9CF0"/>
<path d="M44.4011 11.1909C43.9847 14.2093 42.2088 16.8706 39.578 18.411L34.1313 21.6189L30.6589 18.1466H30.6611C30.7823 18.0364 30.9145 17.9395 31.0555 17.8558L37.1411 14.2733C38.5072 13.4735 39.4282 12.0899 39.6441 10.5235C39.8644 9.00986 39.3775 7.47864 38.3243 6.37039C38.2626 6.30429 38.1965 6.2382 38.1304 6.17651V6.17431C37.0222 5.12116 35.4908 4.63424 33.9771 4.8568C32.4084 5.07052 31.0268 5.99365 30.227 7.35966L26.6422 13.4449C26.5585 13.5859 26.4615 13.7181 26.3513 13.8393L22.8789 10.367L26.087 4.92072C27.6271 2.29225 30.2887 0.516478 33.3075 0.100059C36.271 -0.327364 39.2673 0.628832 41.4378 2.69547C41.4995 2.75496 41.5612 2.81665 41.6228 2.87614C41.6845 2.93783 41.744 2.99952 41.8035 3.0612C43.8703 5.2292 44.8264 8.22537 44.4011 11.1909Z" fill="#6B9CF0"/>
<path d="M35.1508 26.8797L34.8578 27.1727V27.1749C34.5052 27.5253 34.0293 27.7213 33.5335 27.7213C33.0378 27.7213 32.5618 27.5253 32.2093 27.1749L11.672 6.63883C10.9427 5.90515 10.9427 4.72205 11.672 3.99057L11.965 3.69754C12.6966 2.96606 13.8819 2.96606 14.6135 3.69754L35.1507 24.2337C35.8801 24.9651 35.8801 26.1482 35.1508 26.8797Z" fill="#6B9CF0"/>
</svg>
