<svg width="49" height="48" viewBox="0 0 49 48" fill="none" xmlns="http://www.w3.org/2000/svg">
<path d="M22.6338 3.00293C31.5423 3.00466 38.7622 10.1518 38.7607 18.9658V21.1035L42.2773 27.75C43.1432 29.3872 41.3081 31.0003 39.4404 31H37.7422V36.6055C37.7419 38.4535 37.2291 39.9652 35.3613 39.9648L30.6924 39.9639V41.8926C30.6921 43.6108 29.2983 45.0042 27.5801 45.0039L14.7012 45.001C12.983 45.0007 11.5896 43.6079 11.5898 41.8896L11.5918 30.5947C8.45883 27.6828 6.49933 23.5487 6.5 18.96C6.50151 10.1458 13.7251 3.00141 22.6338 3.00293ZM22.2383 11.4033C20.3129 11.4637 18.4832 12.2561 17.1211 13.6182C15.759 14.9803 14.9666 16.81 14.9063 18.7354C14.8459 20.6606 15.5219 22.5368 16.7959 23.9814C18.0701 25.4262 19.8478 26.331 21.7656 26.5117C23.5062 26.6756 25.2427 26.2302 26.6865 25.2637L29.5693 28.1465V28.1455C29.7013 28.2833 29.8579 28.395 30.0322 28.4727C30.2127 28.5531 30.4079 28.5961 30.6055 28.5996C30.803 28.6031 30.9994 28.5672 31.1826 28.4932C31.3658 28.4192 31.5321 28.3087 31.6719 28.1689C31.8116 28.0292 31.9221 27.8629 31.9961 27.6797C32.0701 27.4965 32.106 27.3001 32.1025 27.1025C32.0991 26.9049 32.056 26.7098 31.9756 26.5293C31.8979 26.355 31.7862 26.1983 31.6484 26.0664H31.6494L28.7666 23.1836C29.7331 21.7398 30.1786 20.0032 30.0146 18.2627C29.834 16.3448 28.9291 14.5672 27.4844 13.293C26.0397 12.0189 24.1635 11.343 22.2383 11.4033ZM22.4746 14.3428C23.7023 14.3428 24.8799 14.8302 25.748 15.6982C26.6162 16.5664 27.1044 17.744 27.1045 18.9717C27.1045 19.5795 26.9845 20.1816 26.752 20.7432C26.5193 21.3048 26.1779 21.8152 25.748 22.2451C25.3182 22.675 24.8078 23.0164 24.2461 23.249C23.6845 23.4816 23.0824 23.6016 22.4746 23.6016C21.8667 23.6015 21.2647 23.4816 20.7031 23.249C20.1415 23.0164 19.631 22.675 19.2012 22.2451C18.7714 21.8153 18.4308 21.3047 18.1982 20.7432C17.9656 20.1815 17.8457 19.5796 17.8457 18.9717C17.8458 17.744 18.333 16.5664 19.2012 15.6982C20.0693 14.8301 21.2469 14.3428 22.4746 14.3428ZM18.4082 22.2588C18.454 22.315 18.5009 22.3703 18.5488 22.4248C18.5093 22.3799 18.4695 22.3353 18.4316 22.2891L18.4082 22.2588ZM19.707 12.5732C19.2071 12.7895 18.7327 13.0647 18.2939 13.3936V13.3926C18.7324 13.064 19.2066 12.7894 19.7061 12.5732H19.707Z" fill="#6B9CF0"/>
</svg>
