<svg width="49" height="48" viewBox="0 0 49 48" fill="none" xmlns="http://www.w3.org/2000/svg">
<path fill-rule="evenodd" clip-rule="evenodd" d="M36.5 3C39.8131 3 42.5 5.6869 42.5 9V39C42.5 42.3131 39.8131 45 36.5 45H12.5C9.1869 45 6.5 42.3131 6.5 39V9C6.5 5.6869 9.1869 3 12.5 3H36.5ZM24.5 37.5H35C35.8288 37.5 36.5 36.8288 36.5 36C36.5 35.1712 35.8288 34.5 35 34.5H24.5C23.6712 34.5 23 35.1712 23 36C23 36.8288 23.6712 37.5 24.5 37.5ZM12.9387 13.811L15.1887 16.061C15.7737 16.6461 16.7262 16.6461 17.3112 16.061L22.5615 10.8108C23.1465 10.2258 23.1465 9.27331 22.5615 8.68829C21.9764 8.10326 21.024 8.10326 20.439 8.68829L16.2502 12.8789L15.0614 11.6883C14.4764 11.1033 13.5239 11.1033 12.9389 11.6883C12.3539 12.2733 12.3537 13.226 12.9387 13.811ZM12.9387 24.311L15.1887 26.561C15.7737 27.1461 16.7262 27.1461 17.3112 26.561L22.5615 21.3108C23.1465 20.7258 23.1465 19.7733 22.5615 19.1883C21.9764 18.6033 21.024 18.6033 20.439 19.1883L16.2502 23.3789L15.0614 22.1883C14.4764 21.6033 13.5239 21.6033 12.9389 22.1883C12.3539 22.7733 12.3537 23.726 12.9387 24.311ZM12.9387 34.811L15.1887 37.061C15.7737 37.6461 16.7262 37.6461 17.3112 37.061L22.5615 31.8108C23.1465 31.2258 23.1465 30.2733 22.5615 29.6883C21.9764 29.1033 21.024 29.1033 20.439 29.6883L16.2502 33.8789L15.0614 32.6883C14.4764 32.1033 13.5239 32.1033 12.9389 32.6883C12.3539 33.2733 12.3537 34.226 12.9387 34.811ZM24.5 27H35C35.8288 27 36.5 26.3288 36.5 25.5C36.5 24.6712 35.8288 24 35 24H24.5C23.6712 24 23 24.6712 23 25.5C23 26.3288 23.6712 27 24.5 27ZM24.5 16.5H35C35.8288 16.5 36.5 15.8288 36.5 15C36.5 14.1712 35.8288 13.5 35 13.5H24.5C23.6712 13.5 23 14.1712 23 15C23 15.8288 23.6712 16.5 24.5 16.5Z" fill="#6B9CF0"/>
</svg>
