<svg width="45" height="40" viewBox="0 0 45 40" fill="none" xmlns="http://www.w3.org/2000/svg">
<path d="M44.3662 2.93376V21.0524C44.3662 22.5128 43.9245 23.917 43.087 25.1107L38.0308 32.3314C37.2892 33.3876 36.8996 34.6293 36.8996 35.9251V39.7333C36.8996 39.8833 36.7829 40 36.6329 40H24.8998C24.7498 40 24.6331 39.8833 24.6331 39.7333V29.5895C24.6331 27.4666 25.3915 25.4083 26.7602 23.7875L34.3393 14.8335C34.408 14.7543 34.4789 14.6793 34.5518 14.6085C35.0372 14.1981 35.6351 13.9585 36.2851 13.9314C37.1059 13.9002 37.8642 14.1981 38.4392 14.7689C39.5059 15.8355 39.5642 17.5626 38.5726 18.6938L32.8143 25.2708C32.4247 25.7125 32.4726 26.3853 32.9163 26.7749C33.358 27.1645 34.0372 27.1166 34.4205 26.6729L40.1681 20.1066C41.9014 18.1274 41.7993 15.1254 39.939 13.2651C39.5181 12.8442 39.0265 12.513 38.4994 12.2672V2.93398C38.4994 1.31737 39.8161 0.000693247 41.4327 0.000693247C43.0493 0.000693247 44.3662 1.31293 44.3662 2.93376ZM10.5315 14.8333C10.4627 14.7541 10.3919 14.6791 10.319 14.6083C9.83359 14.1979 9.23571 13.9583 8.58569 13.9313C7.76485 13.9 7.00657 14.1979 6.43154 14.7687C5.36489 15.8354 5.30655 17.5624 6.29821 18.6937L12.048 25.2642C12.4376 25.7059 12.3896 26.3788 11.9459 26.7684C11.5042 27.158 10.8251 27.11 10.4418 26.6663L4.69786 20.1059C2.96455 18.1268 3.06663 15.1247 4.92702 13.2644C5.34785 12.8436 5.83949 12.5123 6.36657 12.2665V2.93329C6.36657 1.31667 5.0499 0 3.43329 0C1.81667 0 0.5 1.31667 0.5 2.93329V21.0519C0.5 22.5123 0.941657 23.9165 1.77913 25.1102L6.83531 32.3309C7.57695 33.3872 7.96655 34.6288 7.96655 35.9246V39.7329C7.96655 39.8829 8.08321 39.9995 8.23321 39.9995H19.9664C20.1164 39.9995 20.233 39.8829 20.233 39.7329V29.589C20.233 27.4661 19.4747 25.4079 18.106 23.787L10.5315 14.8333Z" fill="#6B9CF0"/>
</svg>
