<svg width="35" height="42" viewBox="0 0 35 42" fill="none" xmlns="http://www.w3.org/2000/svg">
<path fill-rule="evenodd" clip-rule="evenodd" d="M5.27273 3.8183H2.40909C1.35473 3.8183 0.5 2.96357 0.5 1.90921C0.5 0.854851 1.35473 0.00012207 2.40909 0.00012207H32.9545C34.0088 0.00012207 34.8636 0.854851 34.8636 1.90921C34.8636 2.96357 34.0089 3.8183 32.9545 3.8183H30.0909V12.573C30.0909 13.5856 29.6886 14.5568 28.9725 15.2728L23.2452 21.0001L28.9725 26.7274C29.6886 27.4435 30.0909 28.4146 30.0909 29.4273V38.1819H32.9545C34.0089 38.1819 34.8636 39.0367 34.8636 40.091C34.8636 41.1454 34.0089 42.0001 32.9545 42.0001H2.40909C1.35473 42.0001 0.5 41.1454 0.5 40.091C0.5 39.0367 1.35473 38.1819 2.40909 38.1819H5.27273V29.4273C5.27273 28.4146 5.675 27.4435 6.39104 26.7274L12.1183 21.0001L6.39105 15.2728C5.675 14.5568 5.27273 13.5856 5.27273 12.573V3.8183Z" fill="#6B9CF0"/>
</svg>
