<svg width="49" height="48" viewBox="0 0 49 48" fill="none" xmlns="http://www.w3.org/2000/svg">
<path d="M17.1008 40.6735C16.5912 41.5655 15.478 41.9288 14.586 41.4193C11.8487 39.8558 9.57002 37.716 7.75 35C5.58333 31.7667 4.5 28.1167 4.5 24.05C4.5 23.1833 4.542 22.3333 4.626 21.5C4.71 20.6667 4.85133 19.85 5.05 19.05L4.05064 19.6366C3.33345 20.0575 2.4107 19.8147 1.99363 19.0953L1.50444 18.2514C1.08812 17.5333 1.33422 16.6135 2.05355 16.1993L9.00311 12.1969C9.71984 11.7841 10.6354 12.0294 11.0498 12.7452L15.0442 19.6445C15.4609 20.3643 15.2124 21.2858 14.4903 21.6984L13.5994 22.2075C12.8813 22.6178 11.9665 22.3695 11.5545 21.6523L9.6 18.25C9.23333 19.15 8.95867 20.0833 8.776 21.05C8.59333 22.0167 8.50133 23.0167 8.5 24.05C8.5 27.2833 9.38333 30.2253 11.15 32.876C12.5014 34.9037 14.1942 36.526 16.2283 37.743C17.2421 38.3495 17.6869 39.6478 17.1008 40.6735ZM33 18C32.1716 18 31.5 17.3284 31.5 16.5V15.5C31.5 14.6716 32.1716 14 33 14H36.95C35.4167 12.1 33.5667 10.6253 31.4 9.576C29.2333 8.52667 26.9333 8.00133 24.5 8C22.6667 8 20.9333 8.28333 19.3 8.85C18.3815 9.16868 17.5051 9.56115 16.6709 10.0274C15.6355 10.6061 14.2788 10.3378 13.6903 9.30801C13.1859 8.42541 13.4327 7.29475 14.3117 6.78419C15.5498 6.06504 16.8626 5.47031 18.25 5C20.2167 4.33333 22.3 4 24.5 4C27.1333 4 29.65 4.492 32.05 5.476C34.45 6.46 36.6 7.884 38.5 9.748V8.5C38.5 7.67157 39.1716 7 40 7H41C41.8284 7 42.5 7.67157 42.5 8.5V16.5C42.5 17.3284 41.8284 18 41 18H33ZM30.9502 46.706C30.5355 47.4212 29.6203 47.6661 28.9038 47.2535L21.9528 43.2503C21.2338 42.8362 20.9875 41.917 21.4033 41.1989L25.398 34.2989C25.8133 33.5816 26.7315 33.3371 27.4485 33.7527L28.3004 34.2466C29.0179 34.6625 29.2617 35.5817 28.8448 36.2985L26.75 39.9C30.6833 39.3333 33.9587 37.55 36.576 34.55C39.1933 31.55 40.5013 28.0333 40.5 24C40.5 23.6333 40.492 23.2913 40.476 22.974C40.4504 22.467 40.8254 22 41.3331 22H43.421C43.9768 22 44.4457 22.421 44.476 22.976C44.4933 23.2933 44.5013 23.6347 44.5 24C44.5 28.5 43.158 32.5253 40.474 36.076C37.79 39.6267 34.2987 42.018 30 43.25L30.9193 43.7932C31.6283 44.2122 31.867 45.1244 31.454 45.8369L30.9502 46.706Z" fill="#6B9CF0" stroke="#6B9CF0" stroke-width="0.6"/>
</svg>
