<svg width="35" height="42" viewBox="0 0 35 42" fill="none" xmlns="http://www.w3.org/2000/svg">
<path d="M25.9395 18.439H9.54927C9.0059 18.439 8.48478 18.2232 8.10056 17.8389C7.71634 17.4547 7.50049 16.9336 7.50049 16.3902V10.2439C7.50049 7.52705 8.57975 4.92147 10.5009 3.00037C12.422 1.07927 15.0275 0 17.7444 0C20.4612 0 23.0668 1.07927 24.9879 3.00037C26.909 4.92147 27.9883 7.52705 27.9883 10.2439V16.3902C27.9883 16.9336 27.7724 17.4547 27.3882 17.8389C27.004 18.2232 26.4829 18.439 25.9395 18.439ZM11.598 14.3415H23.8907V10.2439C23.8907 8.61379 23.2432 7.05045 22.0905 5.89778C20.9378 4.74512 19.3745 4.09756 17.7444 4.09756C16.1143 4.09756 14.5509 4.74512 13.3983 5.89778C12.2456 7.05045 11.598 8.61379 11.598 10.2439V14.3415Z" fill="#6B9CF0"/>
<path d="M27.7881 14.3414C31.2658 14.3416 34.085 17.1993 34.085 20.7242V35.6168C34.085 39.1418 31.2658 41.9994 27.7881 41.9996H6.79688C3.319 41.9996 0.5 39.1419 0.5 35.6168V20.7242C0.5 17.1992 3.319 14.3414 6.79688 14.3414H27.7881ZM17.293 23.2321C16.2019 23.2321 15.3174 24.1165 15.3174 25.2076V31.1344C15.3175 32.2254 16.2019 33.11 17.293 33.11C18.3839 33.1099 19.2684 32.2253 19.2686 31.1344V25.2076C19.2686 24.1166 18.384 23.2321 17.293 23.2321Z" fill="#6B9CF0"/>
</svg>
