<svg width="49" height="48" viewBox="0 0 49 48" fill="none" xmlns="http://www.w3.org/2000/svg">
<path d="M35.0556 30.3L38.3278 33.555C36.3011 37.104 31.2978 39.939 26.6111 40.632V21.9H30.8444C32.0042 21.9 32.9444 20.9598 32.9444 19.8C32.9444 18.6402 32.0042 17.7 30.8444 17.7H26.6111V15.222C29.06 14.34 30.8333 12.03 30.8333 9.3C30.8333 5.835 27.9833 3 24.5 3C21.0167 3 18.1667 5.835 18.1667 9.3C18.1667 12.03 19.94 14.34 22.3889 15.222V17.7H18.1556C16.9958 17.7 16.0556 18.6402 16.0556 19.8C16.0556 20.9598 16.9958 21.9 18.1556 21.9H22.3889V40.632C17.7022 39.939 12.6989 37.104 10.6722 33.555L13.9444 30.3L5.5 24V30.3C5.5 38.448 15.8867 45 24.5 45C33.1133 45 43.5 38.448 43.5 30.3V24L35.0556 30.3ZM24.5 7.2C25.6611 7.2 26.6111 8.145 26.6111 9.3C26.6111 10.455 25.6611 11.4 24.5 11.4C23.3389 11.4 22.3889 10.455 22.3889 9.3C22.3889 8.145 23.3389 7.2 24.5 7.2Z" fill="#6B9CF0" stroke="#6B9CF0" stroke-width="0.8"/>
</svg>
