<svg width="49" height="48" viewBox="0 0 49 48" fill="none" xmlns="http://www.w3.org/2000/svg">
<path d="M26.0691 42.8C29.4176 40.4419 33.3913 39.1823 37.4596 39.1896C39.3136 39.1874 41.1589 39.4469 42.9432 39.9609C43.2422 40.0471 43.5567 40.0615 43.862 40.0028C44.1673 39.9441 44.4552 39.814 44.7029 39.6226C44.9507 39.4312 45.1516 39.1839 45.2899 38.8999C45.4282 38.616 45.5001 38.3032 45.5 37.9861V7.8993C45.4996 7.45286 45.3565 7.01875 45.0924 6.66285C44.8283 6.30694 44.4576 6.04868 44.0367 5.92725C41.8967 5.31026 39.6834 4.99823 37.4596 5.00003C33.4851 4.99406 29.5713 5.99497 26.0691 7.91298V42.8ZM22.9309 7.91298C19.4287 5.99497 15.5149 4.99406 11.5404 5.00003C9.31662 4.99823 7.10332 5.31026 4.96334 5.92725C4.54238 6.04868 4.17173 6.30694 3.90763 6.66285C3.64354 7.01875 3.50042 7.45286 3.5 7.8993V37.9861C3.5003 38.303 3.57252 38.6154 3.71099 38.899C3.84946 39.1826 4.05043 39.4296 4.29813 39.6207C4.54582 39.8117 4.83352 39.9416 5.13865 40.0002C5.44378 40.0587 5.75806 40.0443 6.05683 39.9582C7.8412 39.4451 9.68653 39.1865 11.5404 39.1896C15.7723 39.1896 19.6933 40.5216 22.9309 42.8V7.91298Z" fill="#6B9CF0"/>
</svg>
