<svg width="48" height="48" viewBox="0 0 48 48" fill="none" xmlns="http://www.w3.org/2000/svg">
<path d="M18.7487 19.0255C18.6024 18.8455 18.3812 18.7424 18.1487 18.748H16.1838C16.3938 18.0169 16.5007 17.2594 16.4988 16.4982C16.4988 14.3102 15.6288 12.2122 14.082 10.6655C12.5352 9.11892 10.4372 8.24878 8.24939 8.24878C6.06158 8.24878 3.96338 9.11873 2.41676 10.6655C0.870143 12.2123 0 14.3104 0 16.4982C0 18.686 0.869951 20.7842 2.41676 22.3308C3.96357 23.8774 6.06158 24.7476 8.24939 24.7476H17.2489C17.6107 24.7551 17.9257 24.5019 17.9988 24.1476L18.8988 19.6478C18.9438 19.4285 18.8893 19.1999 18.7487 19.0255ZM8.24927 20.248C6.73246 20.248 5.36569 19.3349 4.78444 17.9325C4.20511 16.5319 4.52571 14.9195 5.59814 13.8471C6.67059 12.7746 8.28301 12.4541 9.68352 13.0334C11.086 13.6146 11.999 14.9814 11.999 16.4982C11.999 17.4919 11.6034 18.4462 10.9003 19.1493C10.1972 19.8524 9.24296 20.248 8.24927 20.248Z" fill="#F86D78"/>
<path d="M47.9376 19.2125C47.8232 18.9332 47.5495 18.7494 47.2476 18.7476H30.7485V27.162L42.8976 24.7471C43.042 24.719 43.1751 24.6478 43.2801 24.5446L47.7798 20.0449C47.9992 19.8274 48.0613 19.4957 47.9376 19.2125Z" fill="#F86D78"/>
<path d="M27.9658 0.216499C28.1814 0.00470356 28.5048 -0.0598057 28.7842 0.0582958C29.0633 0.172775 29.2471 0.447028 29.249 0.748725V31.8122C29.9801 31.6023 30.738 31.4949 31.499 31.4968C33.6866 31.4969 35.7844 32.3673 37.331 33.9138C38.8776 35.4603 39.748 37.5582 39.748 39.7458C39.748 41.9336 38.8776 44.032 37.331 45.5788C35.7844 47.1256 33.6858 47.9958 31.498 47.9958C29.3104 47.9957 27.2127 47.1252 25.666 45.5788C24.1192 44.0322 23.249 41.9338 23.249 39.7458V28.0544L19.7021 24.53C19.5241 24.3519 19.4466 24.0947 19.499 23.8474L23.249 5.09833C23.2809 4.95212 23.3581 4.81862 23.4668 4.71552L27.9658 0.216499ZM32.9326 36.2819C31.5322 35.7027 29.9201 36.0231 28.8476 37.0954C27.7753 38.1678 27.4549 39.7799 28.0342 41.1804C28.6154 42.5828 29.9822 43.4958 31.499 43.4958C32.4924 43.4956 33.4465 43.1001 34.1494 42.3972C34.8522 41.6942 35.2479 40.7402 35.248 39.7468C35.2479 38.2301 34.3349 36.8631 32.9326 36.2819ZM24.958 21.1179C24.163 21.1181 23.5186 21.7623 23.5185 22.5573C23.5185 23.3524 24.163 23.9975 24.958 23.9977C25.7532 23.9977 26.3984 23.3526 26.3984 22.5573C26.3984 21.7621 25.7532 21.1179 24.958 21.1179Z" fill="#F86D78"/>
</svg>
