<svg width="38" height="41" viewBox="0 0 38 41" fill="none" xmlns="http://www.w3.org/2000/svg">
<path d="M8.14283 2.61333V5.22667H4.07142C1.82366 5.22667 0 6.9825 0 9.14667V13.0667H37.9999V9.14667C37.9999 6.9825 36.1762 5.22667 33.9285 5.22667H29.857V2.61333C29.857 1.16783 28.6441 0 27.1428 0C25.6414 0 24.4285 1.16783 24.4285 2.61333V5.22667H13.5714V2.61333C13.5714 1.16783 12.3584 0 10.8571 0C9.35577 0 8.14283 1.16783 8.14283 2.61333Z" fill="#F86D78"/>
<path d="M38 37.1004C37.9997 39.2532 36.1762 40.9998 33.9288 41H4.0712C1.82372 40.9999 0.000283431 39.2532 0 37.1004V15H38V37.1004Z" fill="#F86D78"/>
</svg>
