<svg width="46" height="40" viewBox="0 0 46 40" fill="none" xmlns="http://www.w3.org/2000/svg">
<path fill-rule="evenodd" clip-rule="evenodd" d="M25.5173 2.51712C25.5173 1.84954 25.2521 1.2093 24.7801 0.737248C24.308 0.265196 23.6678 0 23.0002 0C22.3326 0 21.6924 0.265196 21.2203 0.737248C20.7483 1.2093 20.4831 1.84954 20.4831 2.51712V8.81664C20.4831 9.48422 20.7483 10.1245 21.2203 10.5965C21.6924 11.0686 22.3326 11.3338 23.0002 11.3338C23.6678 11.3338 24.308 11.0686 24.7801 10.5965C25.2521 10.1245 25.5173 9.48422 25.5173 8.81664V2.51712ZM10.3978 6.29952C10.9075 6.30011 11.405 6.4554 11.8245 6.74485C12.2439 7.0343 12.5657 7.44427 12.7471 7.92055L20.6274 28.6079C20.7451 28.9169 20.8008 29.246 20.7912 29.5765C20.7817 29.907 20.7072 30.2323 20.572 30.534C20.4367 30.8357 20.2434 31.1077 20.003 31.3347C19.7625 31.5616 19.4798 31.739 19.1708 31.8567C18.8619 31.9744 18.5328 32.0301 18.2023 32.0205C17.8718 32.011 17.5465 31.9365 17.2448 31.8013C16.9431 31.666 16.671 31.4727 16.4441 31.2322C16.2171 30.9918 16.0397 30.7091 15.9221 30.4001L10.3978 15.8914L4.87022 30.4001C4.63256 31.0241 4.15676 31.5281 3.5475 31.8013C2.93824 32.0744 2.24542 32.0944 1.62145 31.8567C0.997485 31.619 0.493484 31.1432 0.220323 30.534C-0.0528373 29.9247 -0.0727819 29.2319 0.164877 28.6079L8.04515 7.92055C8.22659 7.44427 8.54833 7.0343 8.96783 6.74485C9.38732 6.4554 9.88816 6.30011 10.3978 6.29952ZM35.5993 6.29952C36.1095 6.29943 36.6077 6.4544 37.0279 6.74389C37.448 7.03339 37.7703 7.44374 37.9519 7.92055L45.8322 28.6079C45.9499 28.9169 46.0055 29.246 45.996 29.5765C45.9865 29.907 45.912 30.2323 45.7767 30.534C45.6415 30.8357 45.4481 31.1077 45.2077 31.3347C44.9673 31.5616 44.6846 31.739 44.3756 31.8567C44.0667 31.9744 43.7376 32.0301 43.4071 32.0205C43.0766 32.011 42.7512 31.9365 42.4496 31.8013C42.1479 31.666 41.8758 31.4727 41.6489 31.2322C41.4219 30.9918 41.2445 30.7091 41.1269 30.4001L35.5993 15.8914L30.075 30.4001C29.9573 30.7091 29.78 30.9918 29.553 31.2322C29.326 31.4727 29.054 31.666 28.7523 31.8013C28.4506 31.9365 28.1253 32.011 27.7948 32.0205C27.4643 32.0301 27.1352 31.9744 26.8262 31.8567C26.5173 31.739 26.2345 31.5616 25.9941 31.3347C25.7537 31.1077 25.5604 30.8357 25.4251 30.534C25.152 29.9247 25.132 29.2319 25.3697 28.6079L33.2466 7.92055C33.4282 7.44374 33.7505 7.03339 34.1706 6.74389C34.5908 6.4544 35.089 6.29943 35.5993 6.29952Z" fill="#F86D78"/>
<path fill-rule="evenodd" clip-rule="evenodd" d="M5.66905 6.29956C5.00147 6.29956 4.36123 6.56476 3.88917 7.03681C3.41712 7.50886 3.15193 8.1491 3.15193 8.81668C3.15193 9.48427 3.41712 10.1245 3.88917 10.5966C4.36123 11.0686 5.00147 11.3338 5.66905 11.3338H40.3315C40.9991 11.3338 41.6393 11.0686 42.1114 10.5966C42.5834 10.1245 42.8486 9.48427 42.8486 8.81668C42.8486 8.1491 42.5834 7.50886 42.1114 7.03681C41.6393 6.56476 40.9991 6.29956 40.3315 6.29956H5.66905ZM2.51761 26.987C1.85003 26.987 1.20979 27.2521 0.737736 27.7242C0.265684 28.1963 0.000488281 28.8365 0.000488281 29.5041C0.000488281 32.2612 1.09575 34.9054 3.04532 36.855C4.9949 38.8045 7.63909 39.8998 10.3962 39.8998C13.1533 39.8998 15.7975 38.8045 17.7471 36.855C19.6967 34.9054 20.7919 32.2612 20.7919 29.5041C20.7919 28.8365 20.5267 28.1963 20.0547 27.7242C19.5826 27.2521 18.9424 26.987 18.2748 26.987H2.51761ZM27.7258 26.987C27.0582 26.987 26.4179 27.2521 25.9459 27.7242C25.4738 28.1963 25.2086 28.8365 25.2086 29.5041C25.2086 32.2612 26.3039 34.9054 28.2535 36.855C30.203 38.8045 32.8472 39.8998 35.6043 39.8998C38.3615 39.8998 41.0057 38.8045 42.9552 36.855C44.9048 34.9054 46.0001 32.2612 46.0001 29.5041C46.0001 28.8365 45.7349 28.1963 45.2628 27.7242C44.7908 27.2521 44.1505 26.987 43.4829 26.987H27.7258Z" fill="#F86D78"/>
</svg>
