<svg width="48" height="48" viewBox="0 0 48 48" fill="none" xmlns="http://www.w3.org/2000/svg">
<path d="M36.8961 18.3474H36.8241C35.441 18.3474 34.3265 19.525 34.3265 21.0359V23.1177C34.3265 23.3129 34.249 23.5001 34.1109 23.6382C33.9729 23.7762 33.7857 23.8537 33.5905 23.8537C33.3953 23.8537 33.2081 23.7762 33.0701 23.6382C32.9321 23.5001 32.8545 23.3129 32.8545 23.1177V19.2734C32.8545 17.7629 31.7179 16.534 30.3349 16.534C28.9443 16.534 27.8077 17.7629 27.8077 19.2734V23.3483C27.8077 23.5435 27.7301 23.7307 27.5921 23.8688C27.4541 24.0068 27.2669 24.0843 27.0717 24.0843C26.8765 24.0843 26.6893 24.0068 26.5512 23.8688C26.4132 23.7307 26.3357 23.5435 26.3357 23.3483V18.1548C26.3357 16.6441 25.2224 15.4034 23.8393 15.4034H23.7631C22.4147 15.4034 21.2888 16.5832 21.2888 18.0411V23.8898C21.2888 24.085 21.2113 24.2722 21.0732 24.4102C20.9352 24.5483 20.748 24.6258 20.5528 24.6258C20.3576 24.6258 20.1704 24.5483 20.0324 24.4102C19.8943 24.2722 19.8168 24.085 19.8168 23.8898V18.2097C19.8168 18.1912 19.8147 18.1725 19.8147 18.1536C19.8147 18.1076 19.8168 18.0618 19.8168 18.0162V4.73929C19.8168 3.22881 18.6785 2 17.2955 2C15.9124 2 14.7745 3.22786 14.7734 4.73719L14.7699 18.1698V18.1754L14.758 26.7568C14.7567 26.9528 14.6779 27.1403 14.539 27.2785C14.4 27.4167 14.2121 27.4945 14.0162 27.4948C13.8204 27.494 13.633 27.4155 13.495 27.2767C13.3571 27.1378 13.2798 26.95 13.2802 26.7542L13.2849 19.8729L9.09463 23.8113C8.59139 24.2811 8.24038 24.8909 8.08683 25.562C7.93327 26.2332 7.98422 26.9349 8.23309 27.5769L13.6151 41.5707C15.0616 44.3196 17.777 46 20.7105 46H31.2458C35.738 46 39.3964 42.0869 39.401 37.2461C39.4034 34.7008 39.406 32.8272 39.408 31.2855C39.4132 27.141 39.4152 25.6157 39.4047 21.0534C39.401 19.5473 38.2758 18.3474 36.8961 18.3474Z" fill="#F86D78"/>
</svg>
