<svg width="48" height="48" viewBox="0 0 48 48" fill="none" xmlns="http://www.w3.org/2000/svg">
<path d="M47.776 39.554L29.7946 6.81533C29.496 6.31359 29.018 6 28.4207 6C27.883 6 27.3454 6.31359 27.0467 6.81533L17.5482 24.1254L14.5016 18.5436C14.2029 18.0418 13.725 17.7282 13.1276 17.7282C12.5899 17.7282 12.0523 18.0418 11.7536 18.5436L0.22402 39.554C-0.0746733 40.0558 -0.0746733 40.6829 0.22402 41.1847C0.522713 41.6864 1.00062 42 1.59801 42H10.4393H24.6571H46.402C46.9396 42 47.4773 41.6864 47.776 41.1847C48.0747 40.6829 48.0747 40.0558 47.776 39.554Z" fill="#F86D78"/>
</svg>
