<svg width="48" height="48" viewBox="0 0 48 48" fill="none" xmlns="http://www.w3.org/2000/svg">
<path d="M45.5265 16.3472C43.9744 16.3472 42.7673 17.5543 42.7673 19.1064C42.7673 19.4513 42.7673 19.6237 42.9397 19.9686L36.0418 24.4523L26.3847 12.2082C27.2469 11.5184 27.9367 10.4837 27.9367 9.44897C27.9367 7.55204 26.3847 6 24.4877 6C22.5908 6 21.0387 7.55204 21.0387 9.44897C21.0387 10.6561 21.5561 11.6908 22.5908 12.2082L12.9337 24.4523L6.03571 19.9686C6.20815 19.6237 6.20815 19.4513 6.20815 19.1064C6.20815 17.5543 5.00101 16.3472 3.44897 16.3472C1.20714 16.3472 0 17.5543 0 19.1064C0 20.6584 1.20714 21.8656 2.75918 21.8656H3.10408L8.27754 37.2132V41.8693C8.27754 42.2142 8.62244 42.3867 8.79488 42.3867H39.1459C39.4908 42.3867 39.6632 42.0418 39.6632 41.8693V37.2132L44.8367 21.8656H45.1816C46.7336 21.8656 47.9407 20.6584 47.9407 19.1064C48.2856 17.5543 47.0785 16.3472 45.5265 16.3472Z" fill="#F86D78"/>
</svg>
