<svg width="42" height="42" viewBox="0 0 42 42" fill="none" xmlns="http://www.w3.org/2000/svg">
<path d="M21.0002 23.4231C22.3385 23.4231 23.4233 22.3382 23.4233 21C23.4233 19.6618 22.3385 18.5769 21.0002 18.5769C19.662 18.5769 18.5771 19.6618 18.5771 21C18.5771 22.3382 19.662 23.4231 21.0002 23.4231Z" fill="#F86D78"/>
<path d="M21 0C9.42072 0 0 9.42072 0 21C0 32.5793 9.42072 42 21 42C32.5793 42 42 32.5793 42 21C42 9.42072 32.5793 0 21 0ZM26.0176 25.4176C25.9081 25.6913 25.6913 25.9081 25.4176 26.0176L12.0254 31.3745C11.1463 31.7261 10.2739 30.8537 10.6255 29.9746L15.9824 16.5824C16.0919 16.3087 16.3087 16.0919 16.5824 15.9824L29.9746 10.6255C30.8537 10.2739 31.7261 11.1463 31.3745 12.0254L26.0176 25.4176Z" fill="#F86D78"/>
</svg>
