<svg width="42" height="42" viewBox="0 0 42 42" fill="none" xmlns="http://www.w3.org/2000/svg">
<path d="M41.7791 0.569391C41.7619 0.486476 41.7215 0.410158 41.6626 0.349385C41.6036 0.288612 41.5286 0.245902 41.4462 0.226261C35.9552 -1.11626 23.2678 3.66788 16.394 10.5389C15.168 11.755 14.0503 13.0757 13.0536 14.4858C10.9339 14.2983 8.81419 14.4549 7.0076 15.2424C1.91033 17.4859 0.426248 23.3397 0.0128047 25.8579C-0.0106466 25.9957 -0.00180077 26.1371 0.0386462 26.2709C0.0790931 26.4048 0.150038 26.5274 0.245902 26.6292C0.341765 26.7309 0.459933 26.8091 0.59111 26.8574C0.722288 26.9058 0.862898 26.9231 1.00188 26.9079L9.18732 26.0051C9.19315 26.6222 9.23038 27.2386 9.29888 27.852C9.34007 28.2779 9.52914 28.676 9.83326 28.977L13.003 32.1392C13.3044 32.4429 13.7022 32.6319 14.128 32.6736C14.7379 32.7418 15.3509 32.779 15.9646 32.7852L15.0665 40.9603C15.0515 41.0992 15.0689 41.2398 15.1173 41.3709C15.1658 41.5019 15.2439 41.62 15.3456 41.7158C15.4474 41.8117 15.5699 41.8826 15.7036 41.9231C15.8374 41.9636 15.9787 41.9726 16.1165 41.9494C18.63 41.5463 24.4941 40.0622 26.7245 34.9649C27.512 33.1583 27.6732 31.0489 27.4913 28.9395C28.9049 27.9428 30.229 26.8248 31.4486 25.5982C38.344 18.7375 43.1009 6.33323 41.7791 0.569391ZM24.5691 17.4137C23.9395 16.7845 23.5106 15.9826 23.3367 15.1096C23.1628 14.2366 23.2518 13.3317 23.5923 12.5092C23.9328 11.6868 24.5096 10.9838 25.2497 10.4892C25.9898 9.99457 26.8599 9.73057 27.7501 9.73057C28.6402 9.73057 29.5104 9.99457 30.2505 10.4892C30.9906 10.9838 31.5674 11.6868 31.9079 12.5092C32.2484 13.3317 32.3374 14.2366 32.1635 15.1096C31.9896 15.9826 31.5607 16.7845 30.9311 17.4137C30.5136 17.8318 30.0177 18.1635 29.4719 18.3898C28.9261 18.6162 28.341 18.7326 27.7501 18.7326C27.1592 18.7326 26.5741 18.6162 26.0283 18.3898C25.4825 18.1635 24.9866 17.8318 24.5691 17.4137Z" fill="#F86D78"/>
<path d="M12.7872 34.4296C12.2734 34.9443 11.4493 35.1449 10.4575 35.3165C8.22899 35.6961 6.26114 33.7705 6.66146 31.5176C6.81428 30.6636 7.26616 29.4664 7.54741 29.1851C7.60889 29.1248 7.64981 29.0467 7.66436 28.9618C7.67891 28.877 7.66635 28.7897 7.62847 28.7124C7.59058 28.635 7.5293 28.5716 7.45332 28.5311C7.37735 28.4906 7.29054 28.475 7.20522 28.4867C5.95904 28.6391 4.79969 29.2041 3.91174 30.0917C1.70764 32.2977 1.49951 40.4831 1.49951 40.4831C1.49951 40.4831 9.68963 40.275 11.8937 38.069C12.784 37.1817 13.3497 36.0206 13.4997 34.7727C13.5344 34.3808 13.0572 34.1474 12.7872 34.4296Z" fill="#F86D78"/>
</svg>
