<svg width="48" height="48" viewBox="0 0 48 48" fill="none" xmlns="http://www.w3.org/2000/svg">
<path d="M22.7592 2.5528C23.5489 2.20112 24.4509 2.20118 25.2406 2.5528L40.1293 9.18073C41.2081 9.66111 41.9132 10.7217 41.935 11.9024C42.0405 17.6313 42.0668 23.8929 41.6215 26.4483V26.4493C40.3824 33.5472 34.9008 39.8595 25.3217 45.2266C24.4404 45.7204 23.362 45.7204 22.4818 45.2247C13.556 40.1979 8.14305 34.1944 6.38319 27.3624C5.89978 25.4888 5.98139 16.8899 6.05897 11.9161C6.07753 10.731 6.78385 9.6668 7.86659 9.18463L22.7592 2.5528ZM25.3822 5.56745C24.5007 5.18223 23.4981 5.18217 22.6166 5.56745L10.1664 11.0118C8.9308 11.5521 8.11948 12.7621 8.09804 14.1143C8.06572 16.1518 8.0325 18.9345 8.058 21.4024C8.07074 22.6355 8.09857 23.7989 8.14882 24.7549C8.19734 25.6781 8.27058 26.5005 8.39979 26.9922L8.55507 27.5469C10.2608 33.2579 14.9675 38.1648 22.309 42.2169C23.3087 42.7686 24.5242 42.7677 25.5238 42.2188C33.6402 37.7617 38.5126 32.3958 39.6195 26.171V26.169C39.8201 25.0385 39.9069 23.1645 39.9369 21.0469C39.9672 18.9061 39.9398 16.4444 39.8959 14.0997C39.8706 12.752 39.0601 11.5472 37.8285 11.0089L25.3822 5.56745ZM23.3773 7.30866C23.7738 7.13532 24.225 7.13538 24.6215 7.30866L37.0678 12.7501C37.6224 12.9926 37.9841 13.5333 37.9955 14.1348C38.0393 16.4731 38.0664 18.9105 38.0365 21.0196C38.0101 22.8851 37.9392 24.441 37.808 25.4424L37.7484 25.837V25.838C36.7871 31.2445 32.5001 36.2203 24.6088 40.5538C24.1789 40.7897 23.656 40.789 23.2279 40.5528C16.1182 36.6286 11.8847 32.0538 10.3754 27.0001L10.2377 26.5098C10.1658 26.2361 10.0962 25.606 10.0463 24.6553C9.99805 23.7377 9.97101 22.6045 9.95839 21.3829C9.93316 18.941 9.96617 16.1788 9.99843 14.1446C10.008 13.5403 10.37 12.9958 10.9271 12.752L23.3773 7.30866Z" fill="#F86D78"/>
</svg>
