<svg width="48" height="48" viewBox="0 0 48 48" fill="none" xmlns="http://www.w3.org/2000/svg">
<path d="M22.5557 2.77441C23.1247 1.95725 24.2468 1.75492 25.0693 2.32129C25.0803 2.32885 25.6389 2.71491 26.7471 3.48926C27.5639 4.0584 27.7665 5.1803 27.2002 6L27.1104 6.13184C27.6794 5.31472 28.8042 5.10977 29.624 5.67871C29.624 5.67871 30.1822 6.06449 31.3066 6.84375C32.1211 7.41279 32.3261 8.53488 31.7598 9.35742L31.3584 9.9375C31.9274 9.12034 33.0522 8.918 33.8721 9.48438C33.8879 9.4953 34.4462 9.88121 35.5547 10.6494C36.3689 11.2184 36.5738 12.3423 36.0078 13.1621L34.9717 14.6562C35.5407 13.8392 36.8679 13.8935 37.6904 14.457C39.4137 15.6518 39.7892 15.7084 39.8809 16.6631C40.2422 20.4898 39.9183 26.8351 39.1768 30.8809C39.0905 31.3501 38.9417 31.7393 38.6963 32.1465C36.4203 35.9164 35.2822 37.8018 35.2822 37.8018C35.3581 38.9492 35.2894 41.7838 35.2666 43.8604C35.2538 45.0181 34.2995 46 33.1416 46H20.0195C18.9151 45.9998 18.0195 45.1045 18.0195 44V36.7637L8.59766 21.9443C7.92074 20.8737 7.81535 19.6511 8.30078 18.4834C10.0213 14.3467 11.8578 11.399 13.8184 9.64062C14.9106 8.65625 16.3753 8.40001 17.7373 8.9502C22.497 10.8757 25.5465 12.9685 26.8438 14.4814C27.3453 21.2694 20.9134 19.6326 18.1924 17.7422C17.6855 19.1093 17.4316 19.7969 17.4316 19.7969C21.0643 20.0261 24.2368 21.8471 26.9414 25.2559C27.3351 25.6276 27.9359 25.6515 28.3564 25.3174C28.7772 24.9857 28.8905 24.3896 28.6182 23.9258C28.5643 23.8557 28.5105 23.7851 28.4512 23.7178C29.3707 23.8877 30.328 23.7233 31.1396 23.2568C31.1504 23.2676 31.1621 23.2732 31.1729 23.2812C31.7364 23.6722 32.2975 24.0609 32.8584 24.4492C34.649 25.6867 37.1051 25.2417 38.3457 23.4541L38.3652 23.4297L38.9014 22.6045C39.0955 22.1191 38.9203 21.5664 38.4834 21.2832C38.0466 20.9974 37.4695 21.0615 37.1055 21.4336L36.5879 22.2295C36.0188 23.0467 34.8968 23.2512 34.0742 22.6875C34.0615 22.6786 33.5028 22.2882 32.3965 21.5205C31.5794 20.9515 31.3772 19.8293 31.9434 19.0068L30.6543 20.8623C30.0852 21.6793 28.9633 21.8839 28.1436 21.3203C28.1302 21.311 27.6877 21.0034 26.8193 20.4033C28.6802 18.9901 29.1494 16.6146 28.9795 14.3223L28.9258 13.6182L28.4648 13.084C26.4071 10.6839 22.4723 8.632 19.4033 7.32129L22.5557 2.77441Z" fill="#F86D78"/>
<path d="M22.5557 2.77441C23.1247 1.95725 24.2468 1.75492 25.0693 2.32129C25.0803 2.32885 25.6389 2.71491 26.7471 3.48926C27.5639 4.0584 27.7665 5.1803 27.2002 6L27.1104 6.13184C27.6794 5.31472 28.8042 5.10977 29.624 5.67871C29.624 5.67871 30.1822 6.06449 31.3066 6.84375C32.1211 7.41279 32.3261 8.53488 31.7598 9.35742L31.3584 9.9375C31.9274 9.12034 33.0522 8.918 33.8721 9.48438C33.8879 9.4953 34.4462 9.88121 35.5547 10.6494C36.3689 11.2184 36.5738 12.3423 36.0078 13.1621L34.9717 14.6562C35.5407 13.8392 36.8679 13.8935 37.6904 14.457C39.4137 15.6518 39.7892 15.7084 39.8809 16.6631C40.2422 20.4898 39.9183 26.8351 39.1768 30.8809C39.0905 31.3501 38.9417 31.7393 38.6963 32.1465C36.4203 35.9164 35.2822 37.8018 35.2822 37.8018C35.3581 38.9492 35.2894 41.7838 35.2666 43.8604C35.2538 45.0181 34.2995 46 33.1416 46H20.0195C18.9151 45.9998 18.0195 45.1045 18.0195 44V36.7637L8.59766 21.9443C7.92074 20.8737 7.81535 19.6511 8.30078 18.4834C10.0213 14.3467 11.8578 11.399 13.8184 9.64062C14.9106 8.65625 16.3753 8.40001 17.7373 8.9502C22.497 10.8757 25.5465 12.9685 26.8438 14.4814C27.3453 21.2694 20.9134 19.6326 18.1924 17.7422C17.6855 19.1093 17.4316 19.7969 17.4316 19.7969C21.0643 20.0261 24.2368 21.8471 26.9414 25.2559C27.3351 25.6276 27.9359 25.6515 28.3564 25.3174C28.7772 24.9857 28.8905 24.3896 28.6182 23.9258C28.5643 23.8557 28.5105 23.7851 28.4512 23.7178C29.3707 23.8877 30.328 23.7233 31.1396 23.2568C31.1504 23.2676 31.1621 23.2732 31.1729 23.2812C31.7364 23.6722 32.2975 24.0609 32.8584 24.4492C34.649 25.6867 37.1051 25.2417 38.3457 23.4541L38.3652 23.4297L38.9014 22.6045C39.0955 22.1191 38.9203 21.5664 38.4834 21.2832C38.0466 20.9974 37.4695 21.0615 37.1055 21.4336L36.5879 22.2295C36.0188 23.0467 34.8968 23.2512 34.0742 22.6875C34.0615 22.6786 33.5028 22.2882 32.3965 21.5205C31.5794 20.9515 31.3772 19.8293 31.9434 19.0068L30.6543 20.8623C30.0852 21.6793 28.9633 21.8839 28.1436 21.3203C28.1302 21.311 27.6877 21.0034 26.8193 20.4033C28.6802 18.9901 29.1494 16.6146 28.9795 14.3223L28.9258 13.6182L28.4648 13.084C26.4071 10.6839 22.4723 8.632 19.4033 7.32129L22.5557 2.77441Z" stroke="#F86D78"/>
</svg>
