<svg width="48" height="48" viewBox="0 0 48 48" fill="none" xmlns="http://www.w3.org/2000/svg">
<path d="M15.3161 46H24.7735C27.4128 46 29.8548 44.4674 31.1465 41.986L39.3275 26.2735L38.866 25.8954C38.8572 25.888 38.8486 25.8805 38.8403 25.8728C38.4887 25.542 38.0727 25.2872 37.6184 25.1242C37.164 24.9612 36.6809 24.8936 36.1992 24.9255C35.7072 24.9631 35.2283 25.1016 34.7922 25.3323C34.356 25.5631 33.9721 25.8812 33.6643 26.2668L31.3045 29.1395C31.2162 29.2471 31.0967 29.3247 30.9626 29.3618C30.8284 29.3989 30.6861 29.3936 30.555 29.3467C30.424 29.2998 30.3106 29.2136 30.2304 29.0998C30.1503 28.986 30.1072 28.8503 30.1071 28.7111L30.0933 8.9465C30.0924 7.59968 29.0889 6.50363 27.8564 6.50363C26.6512 6.50363 25.666 7.54844 25.6204 8.85261C25.6204 10.849 25.6196 13.0219 25.6192 15.0899C25.6182 19.7677 25.6174 23.8047 25.6192 24.1964C25.6195 24.2848 25.6023 24.3724 25.5685 24.4542C25.5348 24.5359 25.4852 24.6102 25.4226 24.6726C25.36 24.7351 25.2856 24.7846 25.2038 24.8182C25.122 24.8518 25.0344 24.8689 24.9459 24.8684H24.9435C24.8553 24.8691 24.7679 24.8523 24.6861 24.8191C24.6044 24.7859 24.5301 24.7369 24.4673 24.675C24.4046 24.613 24.3547 24.5392 24.3205 24.4579C24.2863 24.3766 24.2685 24.2894 24.2681 24.2012C24.2667 23.807 24.2675 19.7722 24.2681 15.0924C24.2681 13.0734 24.2689 10.9538 24.2692 8.99658C24.2682 8.98095 24.2676 8.96628 24.2676 8.95036C24.2676 8.91176 24.2682 8.8749 24.2692 8.8364C24.2692 7.19354 24.2692 5.67612 24.2692 4.43389C24.27 3.08707 23.2665 2 22.0331 2H21.9646C20.7312 2 19.7077 3.07839 19.7077 4.42627V24.2042C19.7077 24.3833 19.6365 24.5551 19.5099 24.6818C19.3832 24.8085 19.2114 24.8796 19.0323 24.8796C18.8531 24.8796 18.6813 24.8085 18.5547 24.6818C18.428 24.5551 18.3568 24.3833 18.3568 24.2042V6.98339C18.3568 5.6355 17.3744 4.53897 16.1409 4.53897C14.9007 4.53897 13.9182 5.6355 13.9182 6.98339V24.2042C13.9182 24.3833 13.8471 24.5551 13.7204 24.6818C13.5937 24.8085 13.4219 24.8796 13.2428 24.8796C13.0637 24.8796 12.8919 24.8085 12.7652 24.6818C12.6385 24.5551 12.5674 24.3833 12.5674 24.2042V14.0533C12.5674 12.7049 11.5418 11.6491 10.3084 11.6491H10.2437C9.01339 11.6491 8.00988 12.7176 8.00679 14.0614C7.99396 19.6087 8.00177 29.3884 8.01007 38.1428C8.01412 42.4803 11.2916 46 15.3161 46Z" fill="#F86D78"/>
</svg>
