<svg width="48" height="48" viewBox="0 0 48 48" fill="none" xmlns="http://www.w3.org/2000/svg">
<path d="M25.998 4.84682C30.2308 6.93682 33.5264 8.56481 38.0364 6.36922C38.372 6.20572 38.7436 6.13029 39.1164 6.15004C39.4891 6.16979 39.8507 6.28406 40.1671 6.48209C40.4836 6.68013 40.7444 6.95542 40.9251 7.28206C41.1058 7.60869 41.2004 7.97593 41.2 8.34922V29.3372C41.2004 29.75 41.0847 30.1546 40.8661 30.5047C40.6474 30.8548 40.3347 31.1364 39.9636 31.3172C33.4054 34.5072 28.1232 31.8452 24.0136 29.775C23.5595 29.5436 23.1033 29.3163 22.6452 29.093C20.3726 27.9996 18.4938 27.3066 16.582 27.399C14.91 27.4782 12.9036 28.1844 10.4 30.4702V43.8C10.4 44.3835 10.1682 44.9431 9.75563 45.3556C9.34305 45.7682 8.78348 46 8.2 46C7.61652 46 7.05695 45.7682 6.64437 45.3556C6.23179 44.9431 6 44.3835 6 43.8V8.53621C6.00035 8.2456 6.05827 7.95794 6.17041 7.68984C6.28256 7.42174 6.44672 7.17852 6.6534 6.97422C10.0018 3.66102 13.1808 2.16722 16.3708 2.01322C19.4662 1.86362 22.2074 3.00982 24.5548 4.14062C25.0491 4.37968 25.5294 4.61435 25.9958 4.84462L25.998 4.84682Z" fill="#F86D78"/>
</svg>
