<svg width="48" height="48" viewBox="0 0 48 48" fill="none" xmlns="http://www.w3.org/2000/svg">
<path d="M21.1111 46C20.0065 46 19.1111 45.1046 19.1111 44V38.6667H6.82843C5.04662 38.6667 4.15428 36.5124 5.41421 35.2525L14.2222 26.4444H11.7173C9.93551 26.4444 9.04317 24.2902 10.3031 23.0302L19.1111 14.2222H16.6062C14.8244 14.2222 13.9321 12.0679 15.192 10.808L22.2715 3.72848C23.2261 2.77387 24.7739 2.77387 25.7285 3.72848L32.808 10.808C34.0679 12.0679 33.1756 14.2222 31.3938 14.2222H28.8889L37.6969 23.0302C38.9568 24.2902 38.0645 26.4444 36.2827 26.4444H33.7778L42.5858 35.2525C43.8457 36.5124 42.9534 38.6667 41.1716 38.6667H28.8889V44C28.8889 45.1046 27.9935 46 26.8889 46H21.1111Z" fill="#F86D78"/>
</svg>
