<svg width="48" height="48" viewBox="0 0 48 48" fill="none" xmlns="http://www.w3.org/2000/svg">
<path d="M38.4869 2H38.4085C36.8643 2 35.564 3.35144 35.564 5.03413V21.0135C35.564 21.2062 35.4875 21.3909 35.3512 21.5272C35.215 21.6634 35.0302 21.7399 34.8376 21.7399C34.6449 21.7399 34.4602 21.6634 34.3239 21.5272C34.1877 21.3909 34.1112 21.2062 34.1112 21.0135V16.8343C34.1112 15.1516 32.8575 13.7827 31.3133 13.7827C29.761 13.7827 28.5074 15.1516 28.5074 16.8343V21.2643C28.5074 21.457 28.4309 21.6417 28.2946 21.778C28.1584 21.9142 27.9736 21.9907 27.781 21.9907C27.5883 21.9907 27.4035 21.9142 27.2673 21.778C27.1311 21.6417 27.0546 21.457 27.0546 21.2643V15.6183C27.0546 13.9356 25.8369 12.5849 24.2927 12.5849H24.2097C22.7037 12.5849 21.4508 13.8685 21.4508 15.4935V21.8529C21.4508 22.0456 21.3743 22.2303 21.238 22.3666C21.1018 22.5028 20.917 22.5793 20.7244 22.5793C20.5317 22.5793 20.3469 22.5028 20.2107 22.3666C20.0745 22.2303 19.998 22.0456 19.998 21.8529V15.6751C19.998 15.656 19.9957 15.6366 19.9957 15.6171C19.9957 15.5675 19.998 15.5181 19.998 15.469V13.6074C19.998 11.9247 18.7221 10.5517 17.1779 10.5517C15.6338 10.5517 14.3581 11.9156 14.3569 13.597L14.3402 24.9512C14.3398 25.0456 14.3205 25.1391 14.2836 25.226C14.2468 25.313 14.193 25.3918 14.1254 25.4577C14.0578 25.5237 13.9777 25.5756 13.8899 25.6104C13.8021 25.6452 13.7082 25.6622 13.6138 25.6604H13.6128C13.5182 25.662 13.4242 25.6449 13.3364 25.6099C13.2485 25.5748 13.1685 25.5227 13.101 25.4565C13.0334 25.3902 12.9798 25.3112 12.9431 25.224C12.9065 25.1368 12.8875 25.0432 12.8874 24.9486L12.8986 17.3122L8.21311 21.7185C7.6553 22.2403 7.26632 22.917 7.09618 23.6616C6.92605 24.4062 6.98254 25.1846 7.2584 25.8969L13.1105 41.1226C14.6951 44.1376 17.6734 46 20.8904 46H32.3441C37.2682 46 41.2784 41.6943 41.2834 36.3913C41.2983 20.8343 41.2997 10.2914 41.2873 5.02977C41.2835 3.35196 40.0272 2 38.4869 2Z" fill="#F86D78"/>
</svg>
