<svg width="111" height="110" viewBox="0 0 111 110" fill="none" xmlns="http://www.w3.org/2000/svg">
<circle cx="56" cy="55" r="44" fill="url(#paint0_linear_2295_58218)"/>
<circle cx="56" cy="55" r="35" fill="url(#paint1_linear_2295_58218)"/>
<path d="M48.9916 63.4791C48.7232 62.8083 48.1917 62.2768 47.5209 62.0084L36.1278 57.4512C33.9152 56.5661 33.9152 53.4339 36.1278 52.5488L47.5209 47.9916C48.1917 47.7232 48.7232 47.1917 48.9916 46.5209L53.5488 35.1278C54.4339 32.9152 57.5661 32.9152 58.4512 35.1278L63.0084 46.5209C63.2768 47.1917 63.8083 47.7232 64.4791 47.9916L75.8722 52.5488C78.0848 53.4339 78.0848 56.5661 75.8722 57.4512L64.4791 62.0084C63.8083 62.2768 63.2768 62.8083 63.0084 63.4791L58.4512 74.8722C57.5661 77.0848 54.4339 77.0848 53.5488 74.8722L48.9916 63.4791Z" fill="url(#paint2_linear_2295_58218)"/>
<defs>
<linearGradient id="paint0_linear_2295_58218" x1="12" y1="55" x2="100" y2="55" gradientUnits="userSpaceOnUse">
<stop stop-color="#D1D1D1"/>
<stop offset="1" stop-color="#F9F9F9"/>
</linearGradient>
<linearGradient id="paint1_linear_2295_58218" x1="21" y1="55" x2="91" y2="55" gradientUnits="userSpaceOnUse">
<stop stop-color="white"/>
<stop offset="1" stop-color="#E1E1E1"/>
</linearGradient>
<linearGradient id="paint2_linear_2295_58218" x1="56" y1="33.875" x2="56" y2="76.125" gradientUnits="userSpaceOnUse">
<stop stop-color="#01B0CB"/>
<stop offset="1" stop-color="#78DDF0"/>
</linearGradient>
</defs>
</svg>
