<svg width="20" height="20" viewBox="0 0 20 20" fill="none" xmlns="http://www.w3.org/2000/svg">
<path fill-rule="evenodd" clip-rule="evenodd" d="M16.0915 2.73184C15.6227 2.26317 14.9869 1.99988 14.324 1.99988C13.6611 1.99988 13.0253 2.26317 12.5565 2.73184L11.9674 3.32184L16.0924 7.44684L16.6807 6.85768C16.9129 6.62553 17.0971 6.34991 17.2227 6.04657C17.3484 5.74323 17.4131 5.4181 17.4131 5.08976C17.4131 4.76142 17.3484 4.4363 17.2227 4.13295C17.0971 3.82961 16.9129 3.554 16.6807 3.32184L16.0915 2.73184ZM14.9132 8.62518L10.7882 4.50018L3.2132 12.076C3.04743 12.2418 2.93163 12.4509 2.87903 12.6793L2.02153 16.3918C1.98958 16.5297 1.99324 16.6734 2.03218 16.8094C2.07111 16.9454 2.14404 17.0693 2.24408 17.1693C2.34412 17.2693 2.46798 17.3423 2.604 17.3812C2.74001 17.4201 2.8837 17.4238 3.02153 17.3918L6.73486 16.5352C6.96303 16.4824 7.1718 16.3666 7.33736 16.201L14.9132 8.62518Z" fill="#007F94"/>
</svg>
