<svg width="111" height="110" viewBox="0 0 111 110" fill="none" xmlns="http://www.w3.org/2000/svg">
<circle cx="55" cy="55" r="44" fill="url(#paint0_linear_2295_58228)"/>
<circle cx="55" cy="55" r="35" fill="url(#paint1_linear_2295_58228)"/>
<path d="M64.4615 51.6154C64.4615 48.3542 63.3025 45.5645 60.9844 43.2464C58.6663 40.9283 55.8766 39.7692 52.6154 39.7692C49.3542 39.7692 46.5645 40.9283 44.2464 43.2464C41.9283 45.5645 40.7692 48.3542 40.7692 51.6154C40.7692 54.8766 41.9283 57.6663 44.2464 59.9844C46.5645 62.3025 49.3542 63.4615 52.6154 63.4615C55.8766 63.4615 58.6663 62.3025 60.9844 59.9844C63.3025 57.6663 64.4615 54.8766 64.4615 51.6154ZM76.5048 72.1202C76.5048 73.0369 76.1699 73.8301 75.5 74.5C74.8301 75.1699 74.0369 75.5048 73.1202 75.5048C72.1683 75.5048 71.375 75.1699 70.7404 74.5L63.1659 66.9519C60.0104 69.1378 56.4936 70.2308 52.6154 70.2308C50.0946 70.2308 47.6839 69.7416 45.3834 68.7632C43.0829 67.7849 41.0998 66.4627 39.4339 64.7969C37.768 63.131 36.4459 61.1478 35.4675 58.8474C34.4892 56.5469 34 54.1362 34 51.6154C34 49.0946 34.4892 46.6839 35.4675 44.3834C36.4459 42.0829 37.768 40.0998 39.4339 38.4339C41.0998 36.768 43.0829 35.4459 45.3834 34.4675C47.6839 33.4892 50.0946 33 52.6154 33C55.1362 33 57.5469 33.4892 59.8474 34.4675C62.1478 35.4459 64.131 36.768 65.7969 38.4339C67.4627 40.0998 68.7849 42.0829 69.7632 44.3834C70.7416 46.6839 71.2308 49.0946 71.2308 51.6154C71.2308 55.4936 70.1378 59.0104 67.9519 62.1659L75.5264 69.7404C76.1787 70.3926 76.5048 71.1859 76.5048 72.1202Z" fill="url(#paint2_linear_2295_58228)"/>
<defs>
<linearGradient id="paint0_linear_2295_58228" x1="11" y1="55" x2="99" y2="55" gradientUnits="userSpaceOnUse">
<stop stop-color="#D1D1D1"/>
<stop offset="1" stop-color="#F9F9F9"/>
</linearGradient>
<linearGradient id="paint1_linear_2295_58228" x1="20" y1="55" x2="90" y2="55" gradientUnits="userSpaceOnUse">
<stop stop-color="white"/>
<stop offset="1" stop-color="#E1E1E1"/>
</linearGradient>
<linearGradient id="paint2_linear_2295_58228" x1="72.617" y1="43.883" x2="39.383" y2="77.117" gradientUnits="userSpaceOnUse">
<stop stop-color="#03AFC9"/>
<stop offset="1" stop-color="#6AE0F7"/>
</linearGradient>
</defs>
</svg>
