<svg width="111" height="110" viewBox="0 0 111 110" fill="none" xmlns="http://www.w3.org/2000/svg">
<path d="M23 20C23 16.6863 25.6863 14 29 14H82C85.3137 14 88 16.6863 88 20V90C88 93.3137 85.3137 96 82 96H29C25.6863 96 23 93.3137 23 90V20Z" fill="url(#paint0_linear_2295_57522)"/>
<path d="M23 88C23 84.6863 25.6863 82 29 82H88V91.5882C88 94.0248 86.0248 96 83.5882 96H29C25.6863 96 23 93.3137 23 90V88Z" fill="url(#paint1_linear_2295_57522)" fill-opacity="0.5"/>
<path d="M65.0769 47.7692C65.0769 44.6562 63.9706 41.9934 61.7578 39.7806C59.5451 37.5679 56.8822 36.4615 53.7692 36.4615C50.6562 36.4615 47.9934 37.5679 45.7806 39.7806C43.5679 41.9934 42.4615 44.6562 42.4615 47.7692C42.4615 50.8822 43.5679 53.5451 45.7806 55.7578C47.9934 57.9706 50.6562 59.0769 53.7692 59.0769C56.8822 59.0769 59.5451 57.9706 61.7578 55.7578C63.9706 53.5451 65.0769 50.8822 65.0769 47.7692ZM78 68.7692C78 69.6442 77.6803 70.4014 77.0409 71.0409C76.4014 71.6803 75.6442 72 74.7692 72C73.8606 72 73.1034 71.6803 72.4976 71.0409L63.8401 62.4087C60.8281 64.4952 57.4712 65.5385 53.7692 65.5385C51.363 65.5385 49.0619 65.0715 46.866 64.1376C44.6701 63.2037 42.777 61.9417 41.1869 60.3516C39.5968 58.7614 38.3347 56.8684 37.4008 54.6725C36.4669 52.4766 36 50.1755 36 47.7692C36 45.363 36.4669 43.0619 37.4008 40.866C38.3347 38.6701 39.5968 36.777 41.1869 35.1869C42.777 33.5968 44.6701 32.3347 46.866 31.4008C49.0619 30.4669 51.363 30 53.7692 30C56.1755 30 58.4766 30.4669 60.6725 31.4008C62.8684 32.3347 64.7614 33.5968 66.3516 35.1869C67.9417 36.777 69.2037 38.6701 70.1376 40.866C71.0715 43.0619 71.5385 45.363 71.5385 47.7692C71.5385 51.4712 70.4952 54.8281 68.4087 57.8401L77.0661 66.4976C77.6887 67.1202 78 67.8774 78 68.7692Z" fill="url(#paint2_linear_2295_57522)"/>
<defs>
<linearGradient id="paint0_linear_2295_57522" x1="40" y1="55" x2="23" y2="55" gradientUnits="userSpaceOnUse">
<stop stop-color="#F9F7F7"/>
<stop offset="1" stop-color="#E6E4E1"/>
</linearGradient>
<linearGradient id="paint1_linear_2295_57522" x1="23" y1="89" x2="88" y2="89" gradientUnits="userSpaceOnUse">
<stop stop-color="#8B8B8B"/>
<stop offset="1" stop-color="#D6D6D6"/>
</linearGradient>
<linearGradient id="paint2_linear_2295_57522" x1="36" y1="30" x2="78" y2="72" gradientUnits="userSpaceOnUse">
<stop stop-color="#00AFCA"/>
<stop offset="1" stop-color="#59D2E9"/>
</linearGradient>
</defs>
</svg>
